<svg width="549" height="115" viewBox="0 0 549 115" fill="none" xmlns="http://www.w3.org/2000/svg">
<rect y="57.2756" width="81" height="81" rx="6" transform="rotate(-45 0 57.2756)" fill="#74CE00"/>
<rect x="72.8544" y="54.9568" width="59.0907" height="59.0907" rx="3.5" transform="rotate(-45 72.8544 54.9568)" fill="#2F308A" stroke="white" stroke-width="5"/>
<rect x="129.536" y="54.7283" width="51.1844" height="51.1844" rx="3.5" transform="rotate(-45 129.536 54.7283)" fill="#A4008A" stroke="white" stroke-width="5"/>
<path d="M235.5 72.35C235.467 72.35 235.1 72.3 234.4 72.2C234.1 72.1667 233.867 72.15 233.7 72.15C232.9 72.15 232.217 71.8833 231.65 71.35C231.117 70.7833 230.85 70.1 230.85 69.3C230.85 68.5 231.117 67.8333 231.65 67.3C232.217 66.7333 232.9 66.45 233.7 66.45C234.067 66.45 234.517 66.4833 235.05 66.55C235.083 66.55 235.217 66.5667 235.45 66.6C235.683 66.6 235.867 66.6167 236 66.65C236.267 66.6833 236.467 66.6833 236.6 66.65C236.967 66.0833 237.267 65.3833 237.5 64.55C237.967 62.8833 238.283 60.6 238.45 57.7C238.717 54.1667 238.7 50.2167 238.4 45.85C238.367 45.4833 238.217 44.2833 237.95 42.25C237.85 41.35 237.783 40.7 237.75 40.3C237.717 39.9667 237.7 39.7 237.7 39.5C237.667 39.3333 237.667 39.1667 237.7 39C237.7 38.8333 237.717 38.6667 237.75 38.5C237.883 37.9333 238.167 37.45 238.6 37.05C238.833 36.85 239.083 36.6833 239.35 36.55C239.617 36.4167 239.817 36.35 239.95 36.35L240.2 36.3C240.333 36.2667 240.517 36.25 240.75 36.25C241.017 36.2167 241.367 36.2 241.8 36.2C242.467 36.1667 243.35 36.1667 244.45 36.2C246.183 36.2333 247.5 36.2667 248.4 36.3C248.8 36.3 249.433 36.3333 250.3 36.4L252.35 36.55H252.45C252.483 36.55 252.517 36.55 252.55 36.55C252.617 36.5167 252.733 36.4833 252.9 36.45C253.067 36.4167 253.267 36.3833 253.5 36.35C254.933 36.15 256.133 36.4 257.1 37.1C258.733 38.3 259.65 40.2167 259.85 42.85C259.917 43.5833 259.933 44.4333 259.9 45.4C259.9 45.5667 259.883 45.85 259.85 46.25C259.817 46.65 259.8 46.95 259.8 47.15V58.55C259.8 63.2167 259.667 66.8667 259.4 69.5C259.333 70.2667 259 70.9167 258.4 71.45C257.8 71.95 257.1 72.1667 256.3 72.1C255.533 72.0333 254.883 71.7 254.35 71.1C253.85 70.5 253.633 69.8 253.7 69C253.933 66.5333 254.067 63.05 254.1 58.55V47.05C254.1 46.85 254.1 46.5167 254.1 46.05C254.133 45.5833 254.167 45.2833 254.2 45.15C254.233 44.4167 254.217 43.8 254.15 43.3C254.117 42.8 254.05 42.4 253.95 42.1C253.183 42.2333 252.583 42.2833 252.15 42.25C251.683 42.25 251 42.2167 250.1 42.15L248.1 42C247.267 41.9667 246.033 41.9333 244.4 41.9H243.7C243.933 43.8 244.067 44.9833 244.1 45.45C244.4 50.1833 244.417 54.3833 244.15 58.05C243.95 61.3167 243.567 63.9833 243 66.05C242.133 69.2167 240.733 71.1833 238.8 71.95C237.867 72.3167 236.767 72.45 235.5 72.35ZM290.57 62.5H290.27C289.403 62.5667 288.586 62.6167 287.82 62.65L286.02 62.7C285.586 62.7333 285.12 62.7667 284.62 62.8C284.12 62.8333 283.786 62.8667 283.62 62.9C283.486 62.9 283.236 62.9 282.87 62.9H282.22C282.153 62.9 281.903 62.9167 281.47 62.95C281.07 62.95 280.786 62.95 280.62 62.95C280.486 62.9167 280.086 62.9 279.42 62.9H277.82C276.686 65.3333 275.72 67.7 274.92 70C274.62 70.8 274.086 71.3833 273.32 71.75C272.553 72.1167 271.753 72.1667 270.92 71.9C270.12 71.6 269.536 71.0667 269.17 70.3C268.803 69.5333 268.753 68.7333 269.02 67.9C269.786 66.0333 270.653 63.9333 271.62 61.6L275.02 53.5L277.82 46.8C278.12 46.1 278.52 45.0667 279.02 43.7C279.553 42.3 279.886 41.4 280.02 41C280.453 39.9 280.82 39.0667 281.12 38.5C281.386 38 281.67 37.6 281.97 37.3C282.87 36.2333 283.97 35.8333 285.27 36.1C285.903 36.2333 286.47 36.5333 286.97 37C287.17 37.2 287.353 37.4333 287.52 37.7C287.72 38 287.936 38.3833 288.17 38.85C288.503 39.4833 288.886 40.35 289.32 41.45L290.97 45.8C294.77 56.1667 297.653 63.45 299.62 67.65C300.053 68.2833 300.086 69.05 299.72 69.95C299.353 70.8167 298.77 71.4333 297.97 71.8C297.203 72.1333 296.42 72.1333 295.62 71.8C294.82 71.4667 294.253 70.9167 293.92 70.15L290.57 62.5ZM280.42 56.7C281.42 56.7 284.02 56.5833 288.22 56.35L285.07 48L284.62 46.6L283.62 49.2L280.42 56.7ZM312.368 72.1C311.368 72.1 310.568 71.7 309.968 70.9C309.402 70.1 309.285 69.2333 309.618 68.3C310.418 57.7667 310.252 48.05 309.118 39.15C309.018 38.3833 309.202 37.6833 309.668 37.05C310.168 36.4167 310.802 36.05 311.568 35.95C312.368 35.85 313.085 36.05 313.718 36.55C314.352 37.0167 314.718 37.65 314.818 38.45C315.752 46.1167 316.035 54.1833 315.668 62.65C317.035 61.3167 318.352 59.8833 319.618 58.35C320.885 56.8167 322.152 55.1 323.418 53.2L326.618 48.3L330.118 42.6L333.368 37.25C333.768 36.65 334.285 36.25 334.918 36.05C335.585 35.8167 336.235 35.8333 336.868 36.1C337.535 36.2333 338.085 36.5667 338.518 37.1C338.952 37.6333 339.168 38.25 339.168 38.95C339.135 41.05 339.018 43.6167 338.818 46.65L338.418 54.3C338.285 56.3667 338.252 58.7333 338.318 61.4C338.385 64.0333 338.618 66.4667 339.018 68.7C339.152 69.5 338.985 70.2167 338.518 70.85C338.085 71.4833 337.468 71.8667 336.668 72C335.902 72.1333 335.202 71.9833 334.568 71.55C333.935 71.0833 333.552 70.4667 333.418 69.7C332.885 66.6 332.602 63.1333 332.568 59.3C332.568 55.4333 332.702 51.9833 332.968 48.95L329.018 55.1C327.852 56.8667 326.485 58.7667 324.918 60.8C323.385 62.8333 321.735 64.7167 319.968 66.45C318.235 68.1833 316.418 69.75 314.518 71.15C313.952 71.7833 313.252 72.1 312.418 72.1H312.368ZM324.118 33.6C322.752 33.6 321.435 33.25 320.168 32.55C318.935 31.8833 317.502 30.85 315.868 29.45C315.302 28.95 314.985 28.3167 314.918 27.55C314.885 26.75 315.135 26.05 315.668 25.45C316.202 24.8167 316.852 24.4833 317.618 24.45C318.418 24.3833 319.118 24.6333 319.718 25.2C321.818 27 323.268 27.9 324.068 27.9C324.835 27.9 326.418 27.0333 328.818 25.3C329.485 24.8333 330.202 24.6667 330.968 24.8C331.735 24.9333 332.352 25.3167 332.818 25.95C333.285 26.5833 333.452 27.3 333.318 28.1C333.185 28.8667 332.802 29.4833 332.168 29.95C331.035 30.7167 330.135 31.3167 329.468 31.75C328.802 32.1833 327.968 32.6 326.968 33C325.968 33.4 325.018 33.6 324.118 33.6ZM365.016 67.95C358.949 67.15 354.566 65.2333 351.866 62.2C350.899 61.1 350.199 59.8333 349.766 58.4C349.366 56.9667 349.199 55.6 349.266 54.3C349.366 52.9667 349.633 51.65 350.066 50.35C350.733 48.45 351.699 46.6833 352.966 45.05C354.266 43.4167 355.749 42.1833 357.416 41.35C358.816 40.65 360.066 40.2 361.166 40C362.299 39.8 363.533 39.7333 364.866 39.8L364.816 39.25C364.749 38.4833 364.966 37.8 365.466 37.2C365.966 36.5667 366.599 36.2167 367.366 36.15C368.166 36.0833 368.866 36.3 369.466 36.8C370.099 37.3 370.449 37.95 370.516 38.75C370.549 39.3167 370.599 39.8833 370.666 40.45C375.999 40.85 380.033 42.7667 382.766 46.2C384.899 48.9 385.666 52.2 385.066 56.1C384.799 58 384.199 59.7167 383.266 61.25C382.366 62.7833 381.249 64.0333 379.916 65C378.583 65.9667 377.133 66.7167 375.566 67.25C374.033 67.7833 372.416 68.1 370.716 68.2V69.2C370.716 70 370.433 70.6833 369.866 71.25C369.333 71.7833 368.666 72.05 367.866 72.05C367.066 72.05 366.383 71.7833 365.816 71.25C365.283 70.6833 365.016 70 365.016 69.2V67.95ZM365.116 62.2C365.183 57.4333 365.233 54.7167 365.266 54.05C365.299 51.05 365.283 48.4167 365.216 46.15L363.616 46.2C362.983 46.2333 362.399 46.0667 361.866 45.7C361.366 45.8333 360.749 46.0833 360.016 46.45C359.083 46.9167 358.199 47.6667 357.366 48.7C356.533 49.7333 355.899 50.8833 355.466 52.15C354.599 54.8167 354.833 56.9 356.166 58.4C357.799 60.2667 360.783 61.5333 365.116 62.2ZM370.816 62.5C373.149 62.2667 375.083 61.5167 376.616 60.25C378.183 58.9833 379.133 57.3 379.466 55.2C379.799 52.9667 379.399 51.1333 378.266 49.7C376.666 47.7 374.216 46.55 370.916 46.25C370.983 48.5167 370.999 51.15 370.966 54.15C370.966 54.6167 370.916 57.4 370.816 62.5Z" fill="#1E880D"/>
<path d="M396.1 72.35C396.066 72.35 395.7 72.3 395 72.2C394.7 72.1667 394.466 72.15 394.3 72.15C393.5 72.15 392.816 71.8833 392.25 71.35C391.716 70.7833 391.45 70.1 391.45 69.3C391.45 68.5 391.716 67.8333 392.25 67.3C392.816 66.7333 393.5 66.45 394.3 66.45C394.666 66.45 395.116 66.4833 395.65 66.55C395.683 66.55 395.816 66.5667 396.05 66.6C396.283 66.6 396.466 66.6167 396.6 66.65C396.866 66.6833 397.066 66.6833 397.2 66.65C397.566 66.0833 397.866 65.3833 398.1 64.55C398.566 62.8833 398.883 60.6 399.05 57.7C399.316 54.1667 399.3 50.2167 399 45.85C398.966 45.4833 398.816 44.2833 398.55 42.25C398.45 41.35 398.383 40.7 398.35 40.3C398.316 39.9667 398.3 39.7 398.3 39.5C398.266 39.3333 398.266 39.1667 398.3 39C398.3 38.8333 398.316 38.6667 398.35 38.5C398.483 37.9333 398.766 37.45 399.2 37.05C399.433 36.85 399.683 36.6833 399.95 36.55C400.216 36.4167 400.416 36.35 400.55 36.35L400.8 36.3C400.933 36.2667 401.116 36.25 401.35 36.25C401.616 36.2167 401.966 36.2 402.4 36.2C403.066 36.1667 403.95 36.1667 405.05 36.2C406.783 36.2333 408.1 36.2667 409 36.3C409.4 36.3 410.033 36.3333 410.9 36.4L412.95 36.55H413.05C413.083 36.55 413.116 36.55 413.15 36.55C413.216 36.5167 413.333 36.4833 413.5 36.45C413.666 36.4167 413.866 36.3833 414.1 36.35C415.533 36.15 416.733 36.4 417.7 37.1C419.333 38.3 420.25 40.2167 420.45 42.85C420.516 43.5833 420.533 44.4333 420.5 45.4C420.5 45.5667 420.483 45.85 420.45 46.25C420.416 46.65 420.4 46.95 420.4 47.15V58.55C420.4 63.2167 420.266 66.8667 420 69.5C419.933 70.2667 419.6 70.9167 419 71.45C418.4 71.95 417.7 72.1667 416.9 72.1C416.133 72.0333 415.483 71.7 414.95 71.1C414.45 70.5 414.233 69.8 414.3 69C414.533 66.5333 414.666 63.05 414.7 58.55V47.05C414.7 46.85 414.7 46.5167 414.7 46.05C414.733 45.5833 414.766 45.2833 414.8 45.15C414.833 44.4167 414.816 43.8 414.75 43.3C414.716 42.8 414.65 42.4 414.55 42.1C413.783 42.2333 413.183 42.2833 412.75 42.25C412.283 42.25 411.6 42.2167 410.7 42.15L408.7 42C407.866 41.9667 406.633 41.9333 405 41.9H404.3C404.533 43.8 404.666 44.9833 404.7 45.45C405 50.1833 405.016 54.3833 404.75 58.05C404.55 61.3167 404.166 63.9833 403.6 66.05C402.733 69.2167 401.333 71.1833 399.4 71.95C398.466 72.3167 397.366 72.45 396.1 72.35ZM438.019 71.6C437.386 72.0667 436.669 72.2333 435.869 72.1C435.102 72 434.486 71.6333 434.019 71C433.519 70.3333 433.352 69.5833 433.519 68.75V68.65C433.919 63.9167 434.102 59 434.069 53.9C434.036 48.8 433.686 43.9667 433.019 39.4C432.886 38.6 433.052 37.8833 433.519 37.25C433.986 36.6167 434.602 36.25 435.369 36.15C436.169 36.0167 436.886 36.1833 437.519 36.65C438.152 37.1167 438.519 37.7333 438.619 38.5C439.686 45.4333 440.002 53.5333 439.569 62.8C440.969 61.4333 442.319 59.9667 443.619 58.4C444.919 56.8 447.336 53.5 450.869 48.5L457.819 37.35C458.219 36.6833 458.802 36.2667 459.569 36.1C460.336 35.9 461.052 36.0167 461.719 36.45C462.286 36.7833 462.669 37.25 462.869 37.85C463.102 38.4167 463.136 39 462.969 39.6V39.7C462.936 41.8333 462.819 44.4333 462.619 47.5C462.419 50.5333 462.236 53.0333 462.069 55C461.936 56.9333 461.919 59.2333 462.019 61.9C462.119 64.5667 462.386 66.8667 462.819 68.8C462.986 69.5667 462.836 70.2833 462.369 70.95C461.936 71.5833 461.336 71.9833 460.569 72.15C459.802 72.3167 459.086 72.1833 458.419 71.75C457.786 71.2833 457.386 70.6667 457.219 69.9C456.619 67.1667 456.302 63.9333 456.269 60.2C456.236 56.4667 456.369 53.0667 456.669 50C455.269 52.3 453.952 54.2667 452.719 55.9C451.519 57.5 450.136 59.3 448.569 61.3C447.002 63.3 445.319 65.1667 443.519 66.9C441.752 68.6333 439.919 70.2 438.019 71.6ZM476.97 69.1C476.804 66.1667 476.62 61.1167 476.42 53.95C476.354 53.65 476.32 53.35 476.32 53.05C476.32 52.7833 476.337 52.5333 476.37 52.3C476.204 46.6 476.02 42.3 475.82 39.4C475.754 38.5333 476.004 37.7833 476.57 37.15C477.137 36.4833 477.854 36.1333 478.72 36.1C479.587 36.0333 480.337 36.2833 480.97 36.85C481.637 37.4167 481.987 38.1333 482.02 39C482.22 41.6 482.404 45.25 482.57 49.95C484.404 49.95 487.204 49.9667 490.97 50C494.737 50.0333 497.57 50.05 499.47 50.05C499.604 46.15 499.787 42.3833 500.02 38.75C500.054 37.8833 500.387 37.1667 501.02 36.6C501.687 36.0333 502.454 35.7833 503.32 35.85C504.187 35.8833 504.904 36.2333 505.47 36.9C506.037 37.5333 506.287 38.2833 506.22 39.15C505.654 48.3833 505.37 58.3333 505.37 69C505.37 69.8667 505.07 70.6 504.47 71.2C503.87 71.8 503.137 72.1 502.27 72.1C501.404 72.1 500.67 71.8 500.07 71.2C499.47 70.6 499.17 69.8667 499.17 69C499.17 64.8 499.204 60.5667 499.27 56.3C497.437 56.3 494.67 56.2833 490.97 56.25C487.304 56.2167 484.554 56.2 482.72 56.2C482.887 61.6 483.037 65.8 483.17 68.8C483.237 69.6667 482.97 70.4167 482.37 71.05C481.804 71.6833 481.087 72.0167 480.22 72.05C479.354 72.1167 478.604 71.8667 477.97 71.3C477.337 70.7 477.004 69.9667 476.97 69.1ZM542.561 71.1C542.161 70.6333 541.711 70.15 541.211 69.65L539.011 67.35C538.378 66.65 537.794 65.9833 537.261 65.35C536.161 64.05 534.678 62.0167 532.811 59.25L530.561 56.05L525.611 60.3C525.711 63.2667 525.861 66.0667 526.061 68.7C526.128 69.5667 525.878 70.3333 525.311 71C524.744 71.6333 524.028 71.9833 523.161 72.05C522.328 72.1167 521.578 71.8667 520.911 71.3C520.278 70.7333 519.928 70.0333 519.861 69.2C519.661 66.5333 519.494 63.6667 519.361 60.6C518.861 59.6667 518.844 58.7167 519.311 57.75C519.211 53.9833 519.161 47.7833 519.161 39.15C519.161 38.2833 519.461 37.55 520.061 36.95C520.661 36.35 521.394 36.05 522.261 36.05C523.128 36.05 523.861 36.35 524.461 36.95C525.061 37.55 525.361 38.2833 525.361 39.15C525.361 45.6167 525.378 50 525.411 52.3C529.578 48.6333 534.711 43.6333 540.811 37.3C541.411 36.6667 542.128 36.3333 542.961 36.3C543.828 36.2667 544.578 36.55 545.211 37.15C545.844 37.7167 546.178 38.4333 546.211 39.3C546.244 40.1333 545.978 40.8667 545.411 41.5C541.378 45.6333 537.961 49.05 535.161 51.75C535.861 52.6833 536.794 54.0167 537.961 55.75C539.728 58.3167 541.094 60.1833 542.061 61.35C542.594 61.9833 543.178 62.6333 543.811 63.3L545.861 65.45L547.661 67.3C548.128 67.8 548.278 68.4333 548.111 69.2C547.978 69.9667 547.694 70.65 547.261 71.25C546.828 71.8167 546.078 72.0833 545.011 72.05C543.978 72.0167 543.161 71.7 542.561 71.1Z" fill="#DE7A04"/>
</svg>
