<svg width="318" height="274" viewBox="0 0 318 274" fill="none" xmlns="http://www.w3.org/2000/svg">
<path d="M43.0479 137.118C43.0479 134.356 45.2864 132.118 48.0479 132.118H120.048V146.784H43.0479V137.118Z" fill="#FD961E"/>
<mask id="path-2-inside-1" fill="white">
<path d="M275.048 137.294C275.048 110.753 262.826 85.298 241.072 66.5302C219.318 47.7624 189.813 37.2187 159.048 37.2187C128.283 37.2187 98.7777 47.7624 77.0235 66.5302C55.2693 85.298 43.0479 110.753 43.0479 137.294L58.4484 137.294C58.4484 114.276 69.0472 92.2012 87.9133 75.925C106.779 59.6489 132.367 50.5051 159.048 50.5051C185.728 50.5051 211.316 59.6489 230.182 75.925C249.048 92.2012 259.647 114.276 259.647 137.294H275.048Z"/>
</mask>
<path d="M275.048 137.294C275.048 110.753 262.826 85.298 241.072 66.5302C219.318 47.7624 189.813 37.2187 159.048 37.2187C128.283 37.2187 98.7777 47.7624 77.0235 66.5302C55.2693 85.298 43.0479 110.753 43.0479 137.294L58.4484 137.294C58.4484 114.276 69.0472 92.2012 87.9133 75.925C106.779 59.6489 132.367 50.5051 159.048 50.5051C185.728 50.5051 211.316 59.6489 230.182 75.925C249.048 92.2012 259.647 114.276 259.647 137.294H275.048Z" fill="#534949"/>
<path d="M275.048 137.294C275.048 110.753 262.826 85.298 241.072 66.5302C219.318 47.7624 189.813 37.2187 159.048 37.2187C128.283 37.2187 98.7777 47.7624 77.0235 66.5302C55.2693 85.298 43.0479 110.753 43.0479 137.294L58.4484 137.294C58.4484 114.276 69.0472 92.2012 87.9133 75.925C106.779 59.6489 132.367 50.5051 159.048 50.5051C185.728 50.5051 211.316 59.6489 230.182 75.925C249.048 92.2012 259.647 114.276 259.647 137.294H275.048Z" stroke="#828282" stroke-width="30" mask="url(#path-2-inside-1)"/>
<path d="M275.048 137.294C275.048 110.753 262.826 85.298 241.072 66.5302C219.318 47.7624 189.813 37.2187 159.048 37.2187C128.283 37.2187 98.7777 47.7624 77.0235 66.5302C55.2693 85.298 43.0479 110.753 43.0479 137.294L58.4484 137.294C58.4484 114.276 69.0472 92.2012 87.9133 75.925C106.779 59.6489 132.367 50.5051 159.048 50.5051C185.728 50.5051 211.316 59.6489 230.182 75.925C249.048 92.2012 259.647 114.276 259.647 137.294H275.048Z" stroke="url(#paint0_linear)" stroke-width="30" mask="url(#path-2-inside-1)"/>
<mask id="path-3-inside-2" fill="white">
<path d="M226.648 55.9683C209.19 45.1682 188.6 38.7623 167.171 37.4645C145.742 36.1667 124.316 40.0281 105.281 48.6182C86.2459 57.2083 70.3498 70.1898 59.364 86.1158C48.3782 102.042 42.7343 120.287 43.0613 138.818L58.46 138.615C58.1764 122.545 63.071 106.722 72.5983 92.9104C82.1256 79.0988 95.9113 67.8408 112.419 60.3911C128.927 52.9414 147.508 49.5928 166.092 50.7182C184.677 51.8437 202.533 57.3992 217.673 66.7654L226.648 55.9683Z"/>
</mask>
<path d="M226.648 55.9683C209.19 45.1682 188.6 38.7623 167.171 37.4645C145.742 36.1667 124.316 40.0281 105.281 48.6182C86.2459 57.2083 70.3498 70.1898 59.364 86.1158C48.3782 102.042 42.7343 120.287 43.0613 138.818L58.46 138.615C58.1764 122.545 63.071 106.722 72.5983 92.9104C82.1256 79.0988 95.9113 67.8408 112.419 60.3911C128.927 52.9414 147.508 49.5928 166.092 50.7182C184.677 51.8437 202.533 57.3992 217.673 66.7654L226.648 55.9683Z" fill="#534949" stroke="#FD961E" stroke-width="30" mask="url(#path-3-inside-2)"/>
<g filter="url(#filter0_d)">
<path d="M186.341 87.8969L150.493 128.14L131.58 106.445L186.341 87.8969Z" fill="#FD961E"/>
</g>
<path d="M89.225 186.396C87.3083 186.396 85.975 185.887 85.225 184.871C84.4917 183.837 84.125 182.312 84.125 180.296H87.5C87.5 181.446 87.625 182.312 87.875 182.896C88.125 183.479 88.6167 183.771 89.35 183.771C89.9 183.771 90.3083 183.596 90.575 183.246C90.8417 182.879 91.0083 182.396 91.075 181.796C91.1583 181.179 91.2 180.329 91.2 179.246C91.2 177.912 91.075 176.929 90.825 176.296C90.575 175.662 90.0583 175.346 89.275 175.346C88.8083 175.346 88.4083 175.504 88.075 175.821C87.7583 176.137 87.525 176.571 87.375 177.121H84.4L84.6 165.846H93.7V168.946H87.5L87.3 173.821C87.5833 173.504 87.9917 173.254 88.525 173.071C89.0583 172.871 89.6417 172.771 90.275 172.771C91.7083 172.771 92.7667 173.321 93.45 174.421C94.15 175.504 94.5 177.037 94.5 179.021C94.5 180.571 94.35 181.879 94.05 182.946C93.7667 184.012 93.2417 184.854 92.475 185.471C91.7083 186.087 90.625 186.396 89.225 186.396ZM103.004 186.396C101.287 186.396 99.9791 185.862 99.0791 184.796C98.1791 183.729 97.7291 182.304 97.7291 180.521V171.546C97.7291 169.696 98.1624 168.246 99.0291 167.196C99.8958 166.146 101.221 165.621 103.004 165.621C104.754 165.621 106.071 166.154 106.954 167.221C107.837 168.271 108.279 169.712 108.279 171.546V180.521C108.279 182.304 107.829 183.729 106.929 184.796C106.029 185.862 104.721 186.396 103.004 186.396ZM103.004 183.421C104.187 183.421 104.779 182.437 104.779 180.471V171.596C104.779 170.712 104.654 169.996 104.404 169.446C104.171 168.879 103.704 168.596 103.004 168.596C102.287 168.596 101.812 168.879 101.579 169.446C101.346 169.996 101.229 170.712 101.229 171.596V180.471C101.229 181.287 101.354 181.987 101.604 182.571C101.871 183.137 102.337 183.421 103.004 183.421ZM119.588 165.846H123.413L126.288 179.871L129.263 165.846H132.988L133.363 186.096H130.613L130.313 172.021L127.438 186.096H125.213L122.288 171.971L122.013 186.096H119.238L119.588 165.846ZM141.628 186.321C139.995 186.321 138.82 185.879 138.103 184.996C137.386 184.096 137.028 182.737 137.028 180.921V172.646C137.028 170.779 137.27 169.404 137.753 168.521C138.253 167.621 139.036 166.971 140.103 166.571C140.57 166.387 141.32 166.171 142.353 165.921C143.07 165.754 143.653 165.604 144.103 165.471C144.553 165.321 144.995 165.104 145.428 164.821L145.778 167.596C145.378 167.812 144.953 167.987 144.503 168.121C144.07 168.237 143.545 168.354 142.928 168.471C141.961 168.671 141.261 168.862 140.828 169.046C140.378 169.262 140.036 169.604 139.803 170.071C139.586 170.537 139.478 171.171 139.478 171.971V173.671C139.811 173.321 140.278 173.029 140.878 172.796C141.478 172.562 142.111 172.446 142.778 172.446C143.945 172.446 144.82 172.854 145.403 173.671C146.003 174.471 146.303 175.812 146.303 177.696V180.846C146.303 182.279 146.111 183.396 145.728 184.196C145.345 184.996 144.811 185.554 144.128 185.871C143.461 186.171 142.628 186.321 141.628 186.321ZM141.728 184.021C142.078 184.021 142.345 183.937 142.528 183.771C142.711 183.587 142.836 183.287 142.903 182.871C142.986 182.437 143.028 181.821 143.028 181.021V176.921C143.028 176.054 142.945 175.446 142.778 175.096C142.611 174.729 142.311 174.546 141.878 174.546C141.278 174.546 140.77 174.962 140.353 175.796V180.896C140.353 181.729 140.386 182.362 140.453 182.796C140.536 183.229 140.678 183.546 140.878 183.746C141.078 183.929 141.361 184.021 141.728 184.021ZM149.652 171.646H152.402V180.346L156.477 171.646H159.127V186.096H156.352V177.396L152.377 186.096H149.652V171.646ZM164.437 174.046H161.787V171.646H170.512V174.046H167.837V186.096H164.437V174.046ZM178.586 165.846H180.836L174.986 186.096H172.736L178.586 165.846ZM188.422 186.321C186.806 186.321 185.631 185.871 184.897 184.971C184.164 184.054 183.797 182.746 183.797 181.046V176.696C183.797 174.979 184.164 173.671 184.897 172.771C185.631 171.871 186.806 171.421 188.422 171.421C189.956 171.421 191.072 171.787 191.772 172.521C192.489 173.254 192.847 174.371 192.847 175.871V177.071H189.647V175.796C189.647 175.046 189.556 174.529 189.372 174.246C189.206 173.962 188.897 173.821 188.447 173.821C187.964 173.821 187.631 173.996 187.447 174.346C187.281 174.696 187.197 175.337 187.197 176.271V181.571C187.197 182.471 187.289 183.087 187.472 183.421C187.672 183.754 187.997 183.921 188.447 183.921C188.914 183.921 189.231 183.771 189.397 183.471C189.564 183.154 189.647 182.654 189.647 181.971V180.421H192.847V181.796C192.847 183.279 192.489 184.404 191.772 185.171C191.056 185.937 189.939 186.321 188.422 186.321ZM200.483 186.321C198.883 186.321 197.708 185.879 196.958 184.996C196.208 184.096 195.833 182.771 195.833 181.021V176.721C195.833 174.954 196.208 173.629 196.958 172.746C197.724 171.862 198.899 171.421 200.483 171.421C202.116 171.421 203.266 171.879 203.933 172.796C204.616 173.712 204.958 175.096 204.958 176.946V179.021H199.208V181.871C199.208 182.571 199.308 183.079 199.508 183.396C199.724 183.712 200.058 183.871 200.508 183.871C200.941 183.871 201.249 183.721 201.433 183.421C201.633 183.104 201.733 182.629 201.733 181.996V180.771H204.933V181.771C204.933 183.254 204.558 184.387 203.808 185.171C203.058 185.937 201.949 186.321 200.483 186.321ZM201.733 177.346V175.971C201.733 175.221 201.641 174.687 201.458 174.371C201.274 174.037 200.949 173.871 200.483 173.871C199.999 173.871 199.666 174.046 199.483 174.396C199.299 174.746 199.208 175.396 199.208 176.346V177.346H201.733ZM208.265 171.646H211.665V177.546H212.34L214.79 171.646H218.39L215.44 178.546L218.465 186.096H214.865L212.34 179.521H211.665V186.096H208.265V171.646Z" fill="black"/>
<path d="M223.71 166.846L221.41 167.746V165.546L224.685 163.896H226.235V175.271H223.71V166.846Z" fill="#60C2C2"/>
<path d="M23.42 203.925H31.7V220.125H30.18V205.065H24.94V220.125H23.42V203.925ZM34.6938 221.865C35.6271 221.865 36.2538 221.765 36.5738 221.565C36.8938 221.365 37.0538 221.065 37.0538 220.665C37.0538 220.411 36.9938 220.051 36.8738 219.585C36.7671 219.105 36.7004 218.825 36.6738 218.745L34.2938 208.565H35.7538L37.7538 218.405L39.6938 208.565H41.1738L38.3738 220.945C38.2004 221.678 37.8538 222.205 37.3338 222.525C36.8138 222.845 36.0604 223.005 35.0738 223.005H34.6938V221.865ZM46.6909 220.305C45.7576 220.305 44.9843 219.978 44.3709 219.325C43.7709 218.671 43.4709 217.718 43.4709 216.465V209.345C43.4709 207.905 43.6176 206.845 43.9109 206.165C44.2176 205.471 44.6976 204.978 45.3509 204.685C45.6976 204.538 46.0643 204.418 46.4509 204.325C46.8509 204.231 47.0909 204.178 47.1709 204.165C47.6909 204.058 48.1243 203.958 48.4709 203.865C48.8309 203.758 49.2043 203.618 49.5909 203.445L49.8509 204.665C49.5043 204.838 49.1509 204.971 48.7909 205.065C48.4443 205.158 48.0309 205.251 47.5509 205.345C47.1509 205.425 46.8176 205.498 46.5509 205.565C46.2976 205.631 46.0643 205.725 45.8509 205.845C45.4776 206.045 45.2043 206.371 45.0309 206.825C44.8576 207.278 44.7709 207.931 44.7709 208.785V210.425C45.0243 210.158 45.4176 209.918 45.9509 209.705C46.4843 209.478 46.9776 209.365 47.4309 209.365C48.3243 209.365 49.0043 209.711 49.4709 210.405C49.9376 211.085 50.1709 212.211 50.1709 213.785V215.805C50.1709 217.498 49.8776 218.671 49.2909 219.325C48.7043 219.978 47.8376 220.305 46.6909 220.305ZM46.8109 219.205C47.4643 219.205 47.9376 218.991 48.2309 218.565C48.5376 218.125 48.6909 217.331 48.6909 216.185V213.405C48.6909 212.285 48.5709 211.505 48.3309 211.065C48.1043 210.625 47.7043 210.405 47.1309 210.405C46.8109 210.405 46.4309 210.498 45.9909 210.685C45.5643 210.871 45.2109 211.078 44.9309 211.305V216.505C44.9309 217.438 45.0976 218.125 45.4309 218.565C45.7643 218.991 46.2243 219.205 46.8109 219.205ZM52.0419 219.105C52.5752 219.091 52.9752 218.945 53.2419 218.665C53.5085 218.385 53.7152 217.878 53.8619 217.145C54.0085 216.411 54.1352 215.271 54.2419 213.725L54.6019 208.565H59.8819V220.125H58.4219V209.685H55.8819L55.6019 213.725C55.4819 215.525 55.3085 216.878 55.0819 217.785C54.8685 218.678 54.5485 219.311 54.1219 219.685C53.6952 220.045 53.0752 220.225 52.2619 220.225H52.0419V219.105ZM62.902 208.565H64.142V217.465L68.002 208.565H69.182V220.125H67.942V211.245L64.122 220.125H62.902V208.565ZM76.4377 215.305C75.7443 215.438 75.1843 215.505 74.7577 215.505C72.851 215.505 71.8977 214.618 71.8977 212.845V208.565H73.3577V212.885C73.3577 213.925 73.9243 214.445 75.0577 214.445C75.4443 214.445 75.9043 214.385 76.4377 214.265V208.565H77.9177V220.125H76.4377V215.305ZM80.9669 208.565H82.4269V213.605H86.0269V208.565H87.5069V220.125H86.0269V214.705H82.4269V220.125H80.9669V208.565ZM90.5364 208.565H91.9964V213.265H92.6964C94.1764 213.278 95.2031 213.578 95.7764 214.165C96.3497 214.738 96.6364 215.598 96.6364 216.745C96.6364 217.825 96.3364 218.658 95.7364 219.245C95.1497 219.831 94.0964 220.125 92.5764 220.125H90.5364V208.565ZM98.0964 208.565H99.5564V220.125H98.0964V208.565ZM92.5764 219.205C93.6164 219.205 94.3297 219.005 94.7164 218.605C95.1031 218.191 95.2964 217.565 95.2964 216.725C95.2964 215.911 95.1097 215.291 94.7364 214.865C94.3764 214.425 93.6764 214.198 92.6364 214.185H91.9964V219.205H92.5764ZM102.606 208.565H103.846V217.465L107.706 208.565H108.886V220.125H107.646V211.245L103.826 220.125H102.606V208.565ZM105.766 207.325C104.993 207.325 104.406 207.118 104.006 206.705C103.606 206.291 103.393 205.698 103.366 204.925H104.306C104.319 205.938 104.806 206.445 105.766 206.445C106.713 206.445 107.213 205.938 107.266 204.925H108.186C108.173 205.685 107.959 206.278 107.546 206.705C107.133 207.118 106.539 207.325 105.766 207.325ZM117.144 203.925H118.664V220.125H117.144V203.925ZM122.337 203.925H126.217C127.591 203.925 128.571 204.298 129.157 205.045C129.757 205.791 130.057 206.851 130.057 208.225C130.057 209.478 129.744 210.498 129.117 211.285C128.504 212.071 127.544 212.465 126.237 212.465H123.857V220.125H122.337V203.925ZM125.797 211.325C126.797 211.325 127.504 211.098 127.917 210.645C128.344 210.178 128.557 209.371 128.557 208.225C128.557 207.385 128.477 206.745 128.317 206.305C128.157 205.851 127.884 205.531 127.497 205.345C127.111 205.158 126.551 205.065 125.817 205.065H123.857V211.325H125.797ZM132.245 213.025H136.485V214.185H132.245V213.025ZM141.243 220.305C140.549 220.305 139.989 220.058 139.563 219.565C139.136 219.071 138.923 218.458 138.923 217.725C138.923 216.965 139.069 216.338 139.363 215.845C139.669 215.351 140.136 214.911 140.763 214.525C141.389 214.138 142.329 213.665 143.583 213.105V212.285C143.583 211.565 143.536 211.005 143.443 210.605C143.363 210.205 143.216 209.918 143.003 209.745C142.803 209.571 142.516 209.485 142.143 209.485C141.063 209.485 140.523 210.145 140.523 211.465V211.865L139.083 211.845C139.096 210.658 139.349 209.785 139.843 209.225C140.336 208.665 141.129 208.385 142.223 208.385C143.236 208.385 143.956 208.691 144.383 209.305C144.823 209.918 145.043 210.885 145.043 212.205V217.825C145.043 218.198 145.049 218.625 145.063 219.105C145.089 219.585 145.116 219.925 145.143 220.125H143.843L143.623 218.525C143.449 219.031 143.149 219.458 142.723 219.805C142.309 220.138 141.816 220.305 141.243 220.305ZM141.703 219.065C142.103 219.065 142.463 218.931 142.783 218.665C143.116 218.385 143.383 218.058 143.583 217.685V214.085C142.676 214.565 142.016 214.938 141.603 215.205C141.203 215.471 140.896 215.771 140.683 216.105C140.483 216.425 140.383 216.845 140.383 217.365C140.383 217.938 140.503 218.365 140.743 218.645C140.996 218.925 141.316 219.065 141.703 219.065ZM147.072 219.125C147.565 218.818 147.972 218.385 148.292 217.825C148.612 217.265 148.872 216.465 149.072 215.425C149.272 214.371 149.412 212.985 149.492 211.265L149.672 208.565H154.492V219.065H155.652V222.905H154.552L154.432 220.125H148.312L148.172 222.905H147.072V219.125ZM153.072 219.065V209.645H150.852L150.672 211.565C150.565 213.271 150.432 214.618 150.272 215.605C150.112 216.578 149.899 217.331 149.632 217.865C149.379 218.385 149.032 218.785 148.592 219.065H153.072ZM158.186 208.565H159.646V209.525C160.246 208.765 160.986 208.385 161.866 208.385C162.88 208.385 163.566 208.805 163.926 209.645C164.3 210.471 164.486 211.585 164.486 212.985V215.425C164.486 217.011 164.28 218.225 163.866 219.065C163.453 219.891 162.733 220.305 161.706 220.305C160.986 220.305 160.3 219.938 159.646 219.205V223.925H158.186V208.565ZM161.486 219.145C162.1 219.145 162.506 218.858 162.706 218.285C162.92 217.711 163.026 216.771 163.026 215.465V212.985C163.026 211.745 162.92 210.858 162.706 210.325C162.506 209.791 162.086 209.525 161.446 209.525C160.846 209.525 160.246 209.825 159.646 210.425V218.305C160.18 218.865 160.793 219.145 161.486 219.145ZM170.226 220.305C169.48 220.305 168.88 220.158 168.426 219.865C167.973 219.571 167.64 219.098 167.426 218.445C167.213 217.791 167.106 216.905 167.106 215.785V212.865C167.106 211.731 167.213 210.845 167.426 210.205C167.653 209.551 167.993 209.085 168.446 208.805C168.913 208.525 169.513 208.385 170.246 208.385C171.046 208.385 171.66 208.558 172.086 208.905C172.526 209.238 172.826 209.745 172.986 210.425C173.16 211.105 173.246 212.018 173.246 213.165V214.205H168.566V216.225C168.566 217.331 168.693 218.105 168.946 218.545C169.2 218.985 169.626 219.205 170.226 219.205C170.733 219.205 171.12 219.045 171.386 218.725C171.666 218.405 171.806 217.825 171.806 216.985V216.185H173.226V216.825C173.226 217.945 172.993 218.805 172.526 219.405C172.06 220.005 171.293 220.305 170.226 220.305ZM171.806 213.365V212.405C171.806 211.711 171.766 211.165 171.686 210.765C171.62 210.365 171.473 210.051 171.246 209.825C171.02 209.598 170.68 209.485 170.226 209.485C169.813 209.485 169.486 209.578 169.246 209.765C169.006 209.938 168.833 210.251 168.726 210.705C168.62 211.145 168.566 211.771 168.566 212.585V213.365H171.806ZM178.897 220.305C178.044 220.305 177.39 220.118 176.937 219.745C176.484 219.358 176.177 218.845 176.017 218.205C175.87 217.551 175.797 216.731 175.797 215.745V213.045C175.797 211.925 175.884 211.031 176.057 210.365C176.244 209.698 176.557 209.205 176.997 208.885C177.45 208.551 178.084 208.385 178.897 208.385C180.03 208.385 180.804 208.698 181.217 209.325C181.63 209.938 181.837 210.858 181.837 212.085V212.645H180.477V212.085C180.477 211.405 180.424 210.878 180.317 210.505C180.224 210.131 180.064 209.871 179.837 209.725C179.61 209.565 179.297 209.485 178.897 209.485C178.444 209.485 178.097 209.591 177.857 209.805C177.63 210.018 177.47 210.358 177.377 210.825C177.297 211.278 177.257 211.938 177.257 212.805V216.045C177.257 216.845 177.304 217.471 177.397 217.925C177.49 218.378 177.657 218.705 177.897 218.905C178.137 219.105 178.477 219.205 178.917 219.205C179.37 219.205 179.704 219.111 179.917 218.925C180.144 218.725 180.29 218.431 180.357 218.045C180.437 217.658 180.477 217.118 180.477 216.425V215.785H181.837V216.345C181.837 217.211 181.757 217.931 181.597 218.505C181.45 219.065 181.164 219.505 180.737 219.825C180.31 220.145 179.697 220.305 178.897 220.305ZM189.212 213.025H193.452V214.185H189.212V213.025ZM204.352 220.305C203.419 220.305 202.645 219.978 202.032 219.325C201.432 218.671 201.132 217.718 201.132 216.465V209.345C201.132 207.905 201.279 206.845 201.572 206.165C201.879 205.471 202.359 204.978 203.012 204.685C203.359 204.538 203.725 204.418 204.112 204.325C204.512 204.231 204.752 204.178 204.832 204.165C205.352 204.058 205.785 203.958 206.132 203.865C206.492 203.758 206.865 203.618 207.252 203.445L207.512 204.665C207.165 204.838 206.812 204.971 206.452 205.065C206.105 205.158 205.692 205.251 205.212 205.345C204.812 205.425 204.479 205.498 204.212 205.565C203.959 205.631 203.725 205.725 203.512 205.845C203.139 206.045 202.865 206.371 202.692 206.825C202.519 207.278 202.432 207.931 202.432 208.785V210.425C202.685 210.158 203.079 209.918 203.612 209.705C204.145 209.478 204.639 209.365 205.092 209.365C205.985 209.365 206.665 209.711 207.132 210.405C207.599 211.085 207.832 212.211 207.832 213.785V215.805C207.832 217.498 207.539 218.671 206.952 219.325C206.365 219.978 205.499 220.305 204.352 220.305ZM204.472 219.205C205.125 219.205 205.599 218.991 205.892 218.565C206.199 218.125 206.352 217.331 206.352 216.185V213.405C206.352 212.285 206.232 211.505 205.992 211.065C205.765 210.625 205.365 210.405 204.792 210.405C204.472 210.405 204.092 210.498 203.652 210.685C203.225 210.871 202.872 211.078 202.592 211.305V216.505C202.592 217.438 202.759 218.125 203.092 218.565C203.425 218.991 203.885 219.205 204.472 219.205ZM213.581 220.305C212.834 220.305 212.234 220.158 211.781 219.865C211.328 219.571 210.994 219.098 210.781 218.445C210.568 217.791 210.461 216.905 210.461 215.785V212.865C210.461 211.731 210.568 210.845 210.781 210.205C211.008 209.551 211.348 209.085 211.801 208.805C212.268 208.525 212.868 208.385 213.601 208.385C214.401 208.385 215.014 208.558 215.441 208.905C215.881 209.238 216.181 209.745 216.341 210.425C216.514 211.105 216.601 212.018 216.601 213.165V214.205H211.921V216.225C211.921 217.331 212.048 218.105 212.301 218.545C212.554 218.985 212.981 219.205 213.581 219.205C214.088 219.205 214.474 219.045 214.741 218.725C215.021 218.405 215.161 217.825 215.161 216.985V216.185H216.581V216.825C216.581 217.945 216.348 218.805 215.881 219.405C215.414 220.005 214.648 220.305 213.581 220.305ZM215.161 213.365V212.405C215.161 211.711 215.121 211.165 215.041 210.765C214.974 210.365 214.828 210.051 214.601 209.825C214.374 209.598 214.034 209.485 213.581 209.485C213.168 209.485 212.841 209.578 212.601 209.765C212.361 209.938 212.188 210.251 212.081 210.705C211.974 211.145 211.921 211.771 211.921 212.585V213.365H215.161ZM222.252 220.305C221.398 220.305 220.745 220.118 220.292 219.745C219.838 219.358 219.532 218.845 219.372 218.205C219.225 217.551 219.152 216.731 219.152 215.745V213.045C219.152 211.925 219.238 211.031 219.412 210.365C219.598 209.698 219.912 209.205 220.352 208.885C220.805 208.551 221.438 208.385 222.252 208.385C223.385 208.385 224.158 208.698 224.572 209.325C224.985 209.938 225.192 210.858 225.192 212.085V212.645H223.832V212.085C223.832 211.405 223.778 210.878 223.672 210.505C223.578 210.131 223.418 209.871 223.192 209.725C222.965 209.565 222.652 209.485 222.252 209.485C221.798 209.485 221.452 209.591 221.212 209.805C220.985 210.018 220.825 210.358 220.732 210.825C220.652 211.278 220.612 211.938 220.612 212.805V216.045C220.612 216.845 220.658 217.471 220.752 217.925C220.845 218.378 221.012 218.705 221.252 218.905C221.492 219.105 221.832 219.205 222.272 219.205C222.725 219.205 223.058 219.111 223.272 218.925C223.498 218.725 223.645 218.431 223.712 218.045C223.792 217.658 223.832 217.118 223.832 216.425V215.785H225.192V216.345C225.192 217.211 225.112 217.931 224.952 218.505C224.805 219.065 224.518 219.505 224.092 219.825C223.665 220.145 223.052 220.305 222.252 220.305ZM227.945 208.565H234.125V220.125H232.665V209.705H229.405V220.125H227.945V208.565ZM236.243 219.105C236.777 219.091 237.177 218.945 237.443 218.665C237.71 218.385 237.917 217.878 238.063 217.145C238.21 216.411 238.337 215.271 238.443 213.725L238.803 208.565H244.083V220.125H242.623V209.685H240.083L239.803 213.725C239.683 215.525 239.51 216.878 239.283 217.785C239.07 218.678 238.75 219.311 238.323 219.685C237.897 220.045 237.277 220.225 236.463 220.225H236.243V219.105ZM249.104 220.305C248.41 220.305 247.85 220.058 247.424 219.565C246.997 219.071 246.784 218.458 246.784 217.725C246.784 216.965 246.93 216.338 247.224 215.845C247.53 215.351 247.997 214.911 248.624 214.525C249.25 214.138 250.19 213.665 251.444 213.105V212.285C251.444 211.565 251.397 211.005 251.304 210.605C251.224 210.205 251.077 209.918 250.864 209.745C250.664 209.571 250.377 209.485 250.004 209.485C248.924 209.485 248.384 210.145 248.384 211.465V211.865L246.944 211.845C246.957 210.658 247.21 209.785 247.704 209.225C248.197 208.665 248.99 208.385 250.084 208.385C251.097 208.385 251.817 208.691 252.244 209.305C252.684 209.918 252.904 210.885 252.904 212.205V217.825C252.904 218.198 252.91 218.625 252.924 219.105C252.95 219.585 252.977 219.925 253.004 220.125H251.704L251.484 218.525C251.31 219.031 251.01 219.458 250.584 219.805C250.17 220.138 249.677 220.305 249.104 220.305ZM249.564 219.065C249.964 219.065 250.324 218.931 250.644 218.665C250.977 218.385 251.244 218.058 251.444 217.685V214.085C250.537 214.565 249.877 214.938 249.464 215.205C249.064 215.471 248.757 215.771 248.544 216.105C248.344 216.425 248.244 216.845 248.244 217.365C248.244 217.938 248.364 218.365 248.604 218.645C248.857 218.925 249.177 219.065 249.564 219.065ZM257.373 209.685H254.873V208.565H261.293V209.685H258.833V220.125H257.373V209.685ZM263.352 208.565H264.812V213.605H268.412V208.565H269.892V220.125H268.412V214.705H264.812V220.125H263.352V208.565ZM275.782 220.305C274.635 220.305 273.835 219.951 273.382 219.245C272.928 218.525 272.702 217.425 272.702 215.945V212.745C272.702 211.265 272.928 210.171 273.382 209.465C273.835 208.745 274.635 208.385 275.782 208.385C276.942 208.385 277.748 208.745 278.202 209.465C278.655 210.171 278.882 211.265 278.882 212.745V215.945C278.882 217.425 278.655 218.525 278.202 219.245C277.748 219.951 276.942 220.305 275.782 220.305ZM275.782 219.205C276.262 219.205 276.615 219.078 276.842 218.825C277.082 218.571 277.235 218.231 277.302 217.805C277.368 217.365 277.402 216.771 277.402 216.025V212.665C277.402 211.918 277.368 211.331 277.302 210.905C277.235 210.465 277.082 210.118 276.842 209.865C276.615 209.611 276.262 209.485 275.782 209.485C275.302 209.485 274.948 209.611 274.722 209.865C274.495 210.118 274.348 210.465 274.282 210.905C274.215 211.331 274.182 211.918 274.182 212.665V216.025C274.182 216.771 274.215 217.365 274.282 217.805C274.348 218.231 274.495 218.571 274.722 218.825C274.948 219.078 275.302 219.205 275.782 219.205Z" fill="black"/>
<defs>
<filter id="filter0_d" x="121.58" y="78.8969" width="74.7614" height="60.2434" filterUnits="userSpaceOnUse" color-interpolation-filters="sRGB">
<feFlood flood-opacity="0" result="BackgroundImageFix"/>
<feColorMatrix in="SourceAlpha" type="matrix" values="0 0 0 0 0 0 0 0 0 0 0 0 0 0 0 0 0 0 127 0"/>
<feOffset dy="1"/>
<feGaussianBlur stdDeviation="5"/>
<feColorMatrix type="matrix" values="0 0 0 0 0.991667 0 0 0 0 0.589845 0 0 0 0 0.115694 0 0 0 0.7 0"/>
<feBlend mode="normal" in2="BackgroundImageFix" result="effect1_dropShadow"/>
<feBlend mode="normal" in="SourceGraphic" in2="effect1_dropShadow" result="shape"/>
</filter>
<linearGradient id="paint0_linear" x1="159.048" y1="37.2187" x2="159.048" y2="237.37" gradientUnits="userSpaceOnUse">
<stop stop-color="white" stop-opacity="0.74"/>
<stop offset="1" stop-color="white" stop-opacity="0"/>
</linearGradient>
</defs>
</svg>
