<svg width="281" height="273" viewBox="0 0 281 273" fill="none" xmlns="http://www.w3.org/2000/svg">
<path d="M24 135C24 132.239 26.2386 130 29 130H101V148H24V135Z" fill="#FD961E"/>
<mask id="path-2-inside-1" fill="white">
<path d="M256 136.5C256 106.398 243.779 77.5288 222.024 56.2434C200.27 34.958 170.765 23 140 23C109.235 23 79.7298 34.958 57.9756 56.2434C36.2214 77.5287 24 106.398 24 136.5H39.4005C39.4005 110.394 49.9994 85.358 68.8654 66.8985C87.7315 48.439 113.319 38.0686 140 38.0686C166.681 38.0686 192.269 48.439 211.135 66.8985C230.001 85.358 240.599 110.394 240.599 136.5H256Z"/>
</mask>
<path d="M256 136.5C256 106.398 243.779 77.5288 222.024 56.2434C200.27 34.958 170.765 23 140 23C109.235 23 79.7298 34.958 57.9756 56.2434C36.2214 77.5287 24 106.398 24 136.5H39.4005C39.4005 110.394 49.9994 85.358 68.8654 66.8985C87.7315 48.439 113.319 38.0686 140 38.0686C166.681 38.0686 192.269 48.439 211.135 66.8985C230.001 85.358 240.599 110.394 240.599 136.5H256Z" fill="#534949"/>
<path d="M256 136.5C256 106.398 243.779 77.5288 222.024 56.2434C200.27 34.958 170.765 23 140 23C109.235 23 79.7298 34.958 57.9756 56.2434C36.2214 77.5287 24 106.398 24 136.5H39.4005C39.4005 110.394 49.9994 85.358 68.8654 66.8985C87.7315 48.439 113.319 38.0686 140 38.0686C166.681 38.0686 192.269 48.439 211.135 66.8985C230.001 85.358 240.599 110.394 240.599 136.5H256Z" stroke="#828282" stroke-width="30" mask="url(#path-2-inside-1)"/>
<path d="M256 136.5C256 106.398 243.779 77.5288 222.024 56.2434C200.27 34.958 170.765 23 140 23C109.235 23 79.7298 34.958 57.9756 56.2434C36.2214 77.5287 24 106.398 24 136.5H39.4005C39.4005 110.394 49.9994 85.358 68.8654 66.8985C87.7315 48.439 113.319 38.0686 140 38.0686C166.681 38.0686 192.269 48.439 211.135 66.8985C230.001 85.358 240.599 110.394 240.599 136.5H256Z" stroke="url(#paint0_linear)" stroke-width="30" mask="url(#path-2-inside-1)"/>
<mask id="path-3-inside-2" fill="white">
<path d="M123.991 24.5293C95.3053 28.4373 69.1568 42.6649 50.6879 64.4143C32.219 86.1638 22.766 113.861 24.1876 142.061L39.5696 141.324C38.3367 116.868 46.5347 92.8481 62.5516 73.9861C78.5686 55.1242 101.245 42.7855 126.123 39.3964L123.991 24.5293Z"/>
</mask>
<path d="M123.991 24.5293C95.3053 28.4373 69.1568 42.6649 50.6879 64.4143C32.219 86.1638 22.766 113.861 24.1876 142.061L39.5696 141.324C38.3367 116.868 46.5347 92.8481 62.5516 73.9861C78.5686 55.1242 101.245 42.7855 126.123 39.3964L123.991 24.5293Z" fill="#534949" stroke="#FD961E" stroke-width="30" mask="url(#path-3-inside-2)"/>
<g filter="url(#filter0_d)">
<path d="M131.369 66.4355L155.57 118.703L124.474 123.385L131.369 66.4355Z" fill="#FD961E"/>
</g>
<path d="M70.225 188.3C68.3083 188.3 66.975 187.792 66.225 186.775C65.4917 185.742 65.125 184.217 65.125 182.2H68.5C68.5 183.35 68.625 184.217 68.875 184.8C69.125 185.383 69.6167 185.675 70.35 185.675C70.9 185.675 71.3083 185.5 71.575 185.15C71.8417 184.783 72.0083 184.3 72.075 183.7C72.1583 183.083 72.2 182.233 72.2 181.15C72.2 179.817 72.075 178.833 71.825 178.2C71.575 177.567 71.0583 177.25 70.275 177.25C69.8083 177.25 69.4083 177.408 69.075 177.725C68.7583 178.042 68.525 178.475 68.375 179.025H65.4L65.6 167.75H74.7V170.85H68.5L68.3 175.725C68.5833 175.408 68.9917 175.158 69.525 174.975C70.0583 174.775 70.6417 174.675 71.275 174.675C72.7083 174.675 73.7667 175.225 74.45 176.325C75.15 177.408 75.5 178.942 75.5 180.925C75.5 182.475 75.35 183.783 75.05 184.85C74.7667 185.917 74.2417 186.758 73.475 187.375C72.7083 187.992 71.625 188.3 70.225 188.3ZM84.0041 188.3C82.2874 188.3 80.9791 187.767 80.0791 186.7C79.1791 185.633 78.7291 184.208 78.7291 182.425V173.45C78.7291 171.6 79.1624 170.15 80.0291 169.1C80.8958 168.05 82.2208 167.525 84.0041 167.525C85.7541 167.525 87.0708 168.058 87.9541 169.125C88.8374 170.175 89.2791 171.617 89.2791 173.45V182.425C89.2791 184.208 88.8291 185.633 87.9291 186.7C87.0291 187.767 85.7208 188.3 84.0041 188.3ZM84.0041 185.325C85.1874 185.325 85.7791 184.342 85.7791 182.375V173.5C85.7791 172.617 85.6541 171.9 85.4041 171.35C85.1708 170.783 84.7041 170.5 84.0041 170.5C83.2874 170.5 82.8124 170.783 82.5791 171.35C82.3458 171.9 82.2291 172.617 82.2291 173.5V182.375C82.2291 183.192 82.3541 183.892 82.6041 184.475C82.8708 185.042 83.3374 185.325 84.0041 185.325ZM98.3586 188.3C96.6419 188.3 95.3336 187.767 94.4336 186.7C93.5336 185.633 93.0836 184.208 93.0836 182.425V173.45C93.0836 171.6 93.5169 170.15 94.3836 169.1C95.2503 168.05 96.5753 167.525 98.3586 167.525C100.109 167.525 101.425 168.058 102.309 169.125C103.192 170.175 103.634 171.617 103.634 173.45V182.425C103.634 184.208 103.184 185.633 102.284 186.7C101.384 187.767 100.075 188.3 98.3586 188.3ZM98.3586 185.325C99.5419 185.325 100.134 184.342 100.134 182.375V173.5C100.134 172.617 100.009 171.9 99.7586 171.35C99.5253 170.783 99.0586 170.5 98.3586 170.5C97.6419 170.5 97.1669 170.783 96.9336 171.35C96.7003 171.9 96.5836 172.617 96.5836 173.5V182.375C96.5836 183.192 96.7086 183.892 96.9586 184.475C97.2253 185.042 97.6919 185.325 98.3586 185.325ZM114.942 167.75H118.767L121.642 181.775L124.617 167.75H128.342L128.717 188H125.967L125.667 173.925L122.792 188H120.567L117.642 173.875L117.367 188H114.592L114.942 167.75ZM136.983 188.225C135.349 188.225 134.174 187.783 133.458 186.9C132.741 186 132.383 184.642 132.383 182.825V174.55C132.383 172.683 132.624 171.308 133.108 170.425C133.608 169.525 134.391 168.875 135.458 168.475C135.924 168.292 136.674 168.075 137.708 167.825C138.424 167.658 139.008 167.508 139.458 167.375C139.908 167.225 140.349 167.008 140.783 166.725L141.133 169.5C140.733 169.717 140.308 169.892 139.858 170.025C139.424 170.142 138.899 170.258 138.283 170.375C137.316 170.575 136.616 170.767 136.183 170.95C135.733 171.167 135.391 171.508 135.158 171.975C134.941 172.442 134.833 173.075 134.833 173.875V175.575C135.166 175.225 135.633 174.933 136.233 174.7C136.833 174.467 137.466 174.35 138.133 174.35C139.299 174.35 140.174 174.758 140.758 175.575C141.358 176.375 141.658 177.717 141.658 179.6V182.75C141.658 184.183 141.466 185.3 141.083 186.1C140.699 186.9 140.166 187.458 139.483 187.775C138.816 188.075 137.983 188.225 136.983 188.225ZM137.083 185.925C137.433 185.925 137.699 185.842 137.883 185.675C138.066 185.492 138.191 185.192 138.258 184.775C138.341 184.342 138.383 183.725 138.383 182.925V178.825C138.383 177.958 138.299 177.35 138.133 177C137.966 176.633 137.666 176.45 137.233 176.45C136.633 176.45 136.124 176.867 135.708 177.7V182.8C135.708 183.633 135.741 184.267 135.808 184.7C135.891 185.133 136.033 185.45 136.233 185.65C136.433 185.833 136.716 185.925 137.083 185.925ZM145.006 173.55H147.756V182.25L151.831 173.55H154.481V188H151.706V179.3L147.731 188H145.006V173.55ZM159.791 175.95H157.141V173.55H165.866V175.95H163.191V188H159.791V175.95ZM173.94 167.75H176.19L170.34 188H168.09L173.94 167.75ZM183.777 188.225C182.16 188.225 180.985 187.775 180.252 186.875C179.519 185.958 179.152 184.65 179.152 182.95V178.6C179.152 176.883 179.519 175.575 180.252 174.675C180.985 173.775 182.16 173.325 183.777 173.325C185.31 173.325 186.427 173.692 187.127 174.425C187.844 175.158 188.202 176.275 188.202 177.775V178.975H185.002V177.7C185.002 176.95 184.91 176.433 184.727 176.15C184.56 175.867 184.252 175.725 183.802 175.725C183.319 175.725 182.985 175.9 182.802 176.25C182.635 176.6 182.552 177.242 182.552 178.175V183.475C182.552 184.375 182.644 184.992 182.827 185.325C183.027 185.658 183.352 185.825 183.802 185.825C184.269 185.825 184.585 185.675 184.752 185.375C184.919 185.058 185.002 184.558 185.002 183.875V182.325H188.202V183.7C188.202 185.183 187.844 186.308 187.127 187.075C186.41 187.842 185.294 188.225 183.777 188.225ZM195.837 188.225C194.237 188.225 193.062 187.783 192.312 186.9C191.562 186 191.187 184.675 191.187 182.925V178.625C191.187 176.858 191.562 175.533 192.312 174.65C193.079 173.767 194.254 173.325 195.837 173.325C197.47 173.325 198.62 173.783 199.287 174.7C199.97 175.617 200.312 177 200.312 178.85V180.925H194.562V183.775C194.562 184.475 194.662 184.983 194.862 185.3C195.079 185.617 195.412 185.775 195.862 185.775C196.295 185.775 196.604 185.625 196.787 185.325C196.987 185.008 197.087 184.533 197.087 183.9V182.675H200.287V183.675C200.287 185.158 199.912 186.292 199.162 187.075C198.412 187.842 197.304 188.225 195.837 188.225ZM197.087 179.25V177.875C197.087 177.125 196.995 176.592 196.812 176.275C196.629 175.942 196.304 175.775 195.837 175.775C195.354 175.775 195.02 175.95 194.837 176.3C194.654 176.65 194.562 177.3 194.562 178.25V179.25H197.087ZM203.619 173.55H207.019V179.45H207.694L210.144 173.55H213.744L210.794 180.45L213.819 188H210.219L207.694 181.425H207.019V188H203.619V173.55Z" fill="black"/>
<path d="M219.065 168.75L216.765 169.65V167.45L220.04 165.8H221.59V177.175H219.065V168.75Z" fill="#60C2C2"/>
<path d="M12.42 222.8H20.7V239H19.18V223.94H13.94V239H12.42V222.8ZM23.6938 240.74C24.6271 240.74 25.2538 240.64 25.5738 240.44C25.8938 240.24 26.0538 239.94 26.0538 239.54C26.0538 239.287 25.9938 238.927 25.8738 238.46C25.7671 237.98 25.7004 237.7 25.6738 237.62L23.2938 227.44H24.7538L26.7538 237.28L28.6938 227.44H30.1738L27.3738 239.82C27.2004 240.553 26.8538 241.08 26.3338 241.4C25.8138 241.72 25.0604 241.88 24.0738 241.88H23.6938V240.74ZM35.6909 239.18C34.7576 239.18 33.9843 238.853 33.3709 238.2C32.7709 237.547 32.4709 236.593 32.4709 235.34V228.22C32.4709 226.78 32.6176 225.72 32.9109 225.04C33.2176 224.347 33.6976 223.853 34.3509 223.56C34.6976 223.413 35.0643 223.293 35.4509 223.2C35.8509 223.107 36.0909 223.053 36.1709 223.04C36.6909 222.933 37.1243 222.833 37.4709 222.74C37.8309 222.633 38.2043 222.493 38.5909 222.32L38.8509 223.54C38.5043 223.713 38.1509 223.847 37.7909 223.94C37.4443 224.033 37.0309 224.127 36.5509 224.22C36.1509 224.3 35.8176 224.373 35.5509 224.44C35.2976 224.507 35.0643 224.6 34.8509 224.72C34.4776 224.92 34.2043 225.247 34.0309 225.7C33.8576 226.153 33.7709 226.807 33.7709 227.66V229.3C34.0243 229.033 34.4176 228.793 34.9509 228.58C35.4843 228.353 35.9776 228.24 36.4309 228.24C37.3243 228.24 38.0043 228.587 38.4709 229.28C38.9376 229.96 39.1709 231.087 39.1709 232.66V234.68C39.1709 236.373 38.8776 237.547 38.2909 238.2C37.7043 238.853 36.8376 239.18 35.6909 239.18ZM35.8109 238.08C36.4643 238.08 36.9376 237.867 37.2309 237.44C37.5376 237 37.6909 236.207 37.6909 235.06V232.28C37.6909 231.16 37.5709 230.38 37.3309 229.94C37.1043 229.5 36.7043 229.28 36.1309 229.28C35.8109 229.28 35.4309 229.373 34.9909 229.56C34.5643 229.747 34.2109 229.953 33.9309 230.18V235.38C33.9309 236.313 34.0976 237 34.4309 237.44C34.7643 237.867 35.2243 238.08 35.8109 238.08ZM41.0419 237.98C41.5752 237.967 41.9752 237.82 42.2419 237.54C42.5085 237.26 42.7152 236.753 42.8619 236.02C43.0085 235.287 43.1352 234.147 43.2419 232.6L43.6019 227.44H48.8819V239H47.4219V228.56H44.8819L44.6019 232.6C44.4819 234.4 44.3085 235.753 44.0819 236.66C43.8685 237.553 43.5485 238.187 43.1219 238.56C42.6952 238.92 42.0752 239.1 41.2619 239.1H41.0419V237.98ZM51.902 227.44H53.142V236.34L57.002 227.44H58.182V239H56.942V230.12L53.122 239H51.902V227.44ZM65.4377 234.18C64.7443 234.313 64.1843 234.38 63.7577 234.38C61.851 234.38 60.8977 233.493 60.8977 231.72V227.44H62.3577V231.76C62.3577 232.8 62.9243 233.32 64.0577 233.32C64.4443 233.32 64.9043 233.26 65.4377 233.14V227.44H66.9177V239H65.4377V234.18ZM69.9669 227.44H71.4269V232.48H75.0269V227.44H76.5069V239H75.0269V233.58H71.4269V239H69.9669V227.44ZM79.5364 227.44H80.9964V232.14H81.6964C83.1764 232.153 84.2031 232.453 84.7764 233.04C85.3497 233.613 85.6364 234.473 85.6364 235.62C85.6364 236.7 85.3364 237.533 84.7364 238.12C84.1497 238.707 83.0964 239 81.5764 239H79.5364V227.44ZM87.0964 227.44H88.5564V239H87.0964V227.44ZM81.5764 238.08C82.6164 238.08 83.3297 237.88 83.7164 237.48C84.1031 237.067 84.2964 236.44 84.2964 235.6C84.2964 234.787 84.1097 234.167 83.7364 233.74C83.3764 233.3 82.6764 233.073 81.6364 233.06H80.9964V238.08H81.5764ZM91.6059 227.44H92.8459V236.34L96.7059 227.44H97.8859V239H96.6459V230.12L92.8259 239H91.6059V227.44ZM94.7659 226.2C93.9926 226.2 93.4059 225.993 93.0059 225.58C92.6059 225.167 92.3926 224.573 92.3659 223.8H93.3059C93.3193 224.813 93.8059 225.32 94.7659 225.32C95.7126 225.32 96.2126 224.813 96.2659 223.8H97.1859C97.1726 224.56 96.9593 225.153 96.5459 225.58C96.1326 225.993 95.5393 226.2 94.7659 226.2ZM106.144 222.8H107.664V239H106.144V222.8ZM111.337 222.8H115.217C116.591 222.8 117.571 223.173 118.157 223.92C118.757 224.667 119.057 225.727 119.057 227.1C119.057 228.353 118.744 229.373 118.117 230.16C117.504 230.947 116.544 231.34 115.237 231.34H112.857V239H111.337V222.8ZM114.797 230.2C115.797 230.2 116.504 229.973 116.917 229.52C117.344 229.053 117.557 228.247 117.557 227.1C117.557 226.26 117.477 225.62 117.317 225.18C117.157 224.727 116.884 224.407 116.497 224.22C116.111 224.033 115.551 223.94 114.817 223.94H112.857V230.2H114.797ZM121.245 231.9H125.485V233.06H121.245V231.9ZM130.243 239.18C129.549 239.18 128.989 238.933 128.563 238.44C128.136 237.947 127.923 237.333 127.923 236.6C127.923 235.84 128.069 235.213 128.363 234.72C128.669 234.227 129.136 233.787 129.763 233.4C130.389 233.013 131.329 232.54 132.583 231.98V231.16C132.583 230.44 132.536 229.88 132.443 229.48C132.363 229.08 132.216 228.793 132.003 228.62C131.803 228.447 131.516 228.36 131.143 228.36C130.063 228.36 129.523 229.02 129.523 230.34V230.74L128.083 230.72C128.096 229.533 128.349 228.66 128.843 228.1C129.336 227.54 130.129 227.26 131.223 227.26C132.236 227.26 132.956 227.567 133.383 228.18C133.823 228.793 134.043 229.76 134.043 231.08V236.7C134.043 237.073 134.049 237.5 134.063 237.98C134.089 238.46 134.116 238.8 134.143 239H132.843L132.623 237.4C132.449 237.907 132.149 238.333 131.723 238.68C131.309 239.013 130.816 239.18 130.243 239.18ZM130.703 237.94C131.103 237.94 131.463 237.807 131.783 237.54C132.116 237.26 132.383 236.933 132.583 236.56V232.96C131.676 233.44 131.016 233.813 130.603 234.08C130.203 234.347 129.896 234.647 129.683 234.98C129.483 235.3 129.383 235.72 129.383 236.24C129.383 236.813 129.503 237.24 129.743 237.52C129.996 237.8 130.316 237.94 130.703 237.94ZM136.072 238C136.565 237.693 136.972 237.26 137.292 236.7C137.612 236.14 137.872 235.34 138.072 234.3C138.272 233.247 138.412 231.86 138.492 230.14L138.672 227.44H143.492V237.94H144.652V241.78H143.552L143.432 239H137.312L137.172 241.78H136.072V238ZM142.072 237.94V228.52H139.852L139.672 230.44C139.565 232.147 139.432 233.493 139.272 234.48C139.112 235.453 138.899 236.207 138.632 236.74C138.379 237.26 138.032 237.66 137.592 237.94H142.072ZM147.186 227.44H148.646V228.4C149.246 227.64 149.986 227.26 150.866 227.26C151.88 227.26 152.566 227.68 152.926 228.52C153.3 229.347 153.486 230.46 153.486 231.86V234.3C153.486 235.887 153.28 237.1 152.866 237.94C152.453 238.767 151.733 239.18 150.706 239.18C149.986 239.18 149.3 238.813 148.646 238.08V242.8H147.186V227.44ZM150.486 238.02C151.1 238.02 151.506 237.733 151.706 237.16C151.92 236.587 152.026 235.647 152.026 234.34V231.86C152.026 230.62 151.92 229.733 151.706 229.2C151.506 228.667 151.086 228.4 150.446 228.4C149.846 228.4 149.246 228.7 148.646 229.3V237.18C149.18 237.74 149.793 238.02 150.486 238.02ZM159.226 239.18C158.48 239.18 157.88 239.033 157.426 238.74C156.973 238.447 156.64 237.973 156.426 237.32C156.213 236.667 156.106 235.78 156.106 234.66V231.74C156.106 230.607 156.213 229.72 156.426 229.08C156.653 228.427 156.993 227.96 157.446 227.68C157.913 227.4 158.513 227.26 159.246 227.26C160.046 227.26 160.66 227.433 161.086 227.78C161.526 228.113 161.826 228.62 161.986 229.3C162.16 229.98 162.246 230.893 162.246 232.04V233.08H157.566V235.1C157.566 236.207 157.693 236.98 157.946 237.42C158.2 237.86 158.626 238.08 159.226 238.08C159.733 238.08 160.12 237.92 160.386 237.6C160.666 237.28 160.806 236.7 160.806 235.86V235.06H162.226V235.7C162.226 236.82 161.993 237.68 161.526 238.28C161.06 238.88 160.293 239.18 159.226 239.18ZM160.806 232.24V231.28C160.806 230.587 160.766 230.04 160.686 229.64C160.62 229.24 160.473 228.927 160.246 228.7C160.02 228.473 159.68 228.36 159.226 228.36C158.813 228.36 158.486 228.453 158.246 228.64C158.006 228.813 157.833 229.127 157.726 229.58C157.62 230.02 157.566 230.647 157.566 231.46V232.24H160.806ZM167.897 239.18C167.044 239.18 166.39 238.993 165.937 238.62C165.484 238.233 165.177 237.72 165.017 237.08C164.87 236.427 164.797 235.607 164.797 234.62V231.92C164.797 230.8 164.884 229.907 165.057 229.24C165.244 228.573 165.557 228.08 165.997 227.76C166.45 227.427 167.084 227.26 167.897 227.26C169.03 227.26 169.804 227.573 170.217 228.2C170.63 228.813 170.837 229.733 170.837 230.96V231.52H169.477V230.96C169.477 230.28 169.424 229.753 169.317 229.38C169.224 229.007 169.064 228.747 168.837 228.6C168.61 228.44 168.297 228.36 167.897 228.36C167.444 228.36 167.097 228.467 166.857 228.68C166.63 228.893 166.47 229.233 166.377 229.7C166.297 230.153 166.257 230.813 166.257 231.68V234.92C166.257 235.72 166.304 236.347 166.397 236.8C166.49 237.253 166.657 237.58 166.897 237.78C167.137 237.98 167.477 238.08 167.917 238.08C168.37 238.08 168.704 237.987 168.917 237.8C169.144 237.6 169.29 237.307 169.357 236.92C169.437 236.533 169.477 235.993 169.477 235.3V234.66H170.837V235.22C170.837 236.087 170.757 236.807 170.597 237.38C170.45 237.94 170.164 238.38 169.737 238.7C169.31 239.02 168.697 239.18 167.897 239.18ZM178.212 231.9H182.452V233.06H178.212V231.9ZM193.352 239.18C192.419 239.18 191.645 238.853 191.032 238.2C190.432 237.547 190.132 236.593 190.132 235.34V228.22C190.132 226.78 190.279 225.72 190.572 225.04C190.879 224.347 191.359 223.853 192.012 223.56C192.359 223.413 192.725 223.293 193.112 223.2C193.512 223.107 193.752 223.053 193.832 223.04C194.352 222.933 194.785 222.833 195.132 222.74C195.492 222.633 195.865 222.493 196.252 222.32L196.512 223.54C196.165 223.713 195.812 223.847 195.452 223.94C195.105 224.033 194.692 224.127 194.212 224.22C193.812 224.3 193.479 224.373 193.212 224.44C192.959 224.507 192.725 224.6 192.512 224.72C192.139 224.92 191.865 225.247 191.692 225.7C191.519 226.153 191.432 226.807 191.432 227.66V229.3C191.685 229.033 192.079 228.793 192.612 228.58C193.145 228.353 193.639 228.24 194.092 228.24C194.985 228.24 195.665 228.587 196.132 229.28C196.599 229.96 196.832 231.087 196.832 232.66V234.68C196.832 236.373 196.539 237.547 195.952 238.2C195.365 238.853 194.499 239.18 193.352 239.18ZM193.472 238.08C194.125 238.08 194.599 237.867 194.892 237.44C195.199 237 195.352 236.207 195.352 235.06V232.28C195.352 231.16 195.232 230.38 194.992 229.94C194.765 229.5 194.365 229.28 193.792 229.28C193.472 229.28 193.092 229.373 192.652 229.56C192.225 229.747 191.872 229.953 191.592 230.18V235.38C191.592 236.313 191.759 237 192.092 237.44C192.425 237.867 192.885 238.08 193.472 238.08ZM202.581 239.18C201.834 239.18 201.234 239.033 200.781 238.74C200.328 238.447 199.994 237.973 199.781 237.32C199.568 236.667 199.461 235.78 199.461 234.66V231.74C199.461 230.607 199.568 229.72 199.781 229.08C200.008 228.427 200.348 227.96 200.801 227.68C201.268 227.4 201.868 227.26 202.601 227.26C203.401 227.26 204.014 227.433 204.441 227.78C204.881 228.113 205.181 228.62 205.341 229.3C205.514 229.98 205.601 230.893 205.601 232.04V233.08H200.921V235.1C200.921 236.207 201.048 236.98 201.301 237.42C201.554 237.86 201.981 238.08 202.581 238.08C203.088 238.08 203.474 237.92 203.741 237.6C204.021 237.28 204.161 236.7 204.161 235.86V235.06H205.581V235.7C205.581 236.82 205.348 237.68 204.881 238.28C204.414 238.88 203.648 239.18 202.581 239.18ZM204.161 232.24V231.28C204.161 230.587 204.121 230.04 204.041 229.64C203.974 229.24 203.828 228.927 203.601 228.7C203.374 228.473 203.034 228.36 202.581 228.36C202.168 228.36 201.841 228.453 201.601 228.64C201.361 228.813 201.188 229.127 201.081 229.58C200.974 230.02 200.921 230.647 200.921 231.46V232.24H204.161ZM211.252 239.18C210.398 239.18 209.745 238.993 209.292 238.62C208.838 238.233 208.532 237.72 208.372 237.08C208.225 236.427 208.152 235.607 208.152 234.62V231.92C208.152 230.8 208.238 229.907 208.412 229.24C208.598 228.573 208.912 228.08 209.352 227.76C209.805 227.427 210.438 227.26 211.252 227.26C212.385 227.26 213.158 227.573 213.572 228.2C213.985 228.813 214.192 229.733 214.192 230.96V231.52H212.832V230.96C212.832 230.28 212.778 229.753 212.672 229.38C212.578 229.007 212.418 228.747 212.192 228.6C211.965 228.44 211.652 228.36 211.252 228.36C210.798 228.36 210.452 228.467 210.212 228.68C209.985 228.893 209.825 229.233 209.732 229.7C209.652 230.153 209.612 230.813 209.612 231.68V234.92C209.612 235.72 209.658 236.347 209.752 236.8C209.845 237.253 210.012 237.58 210.252 237.78C210.492 237.98 210.832 238.08 211.272 238.08C211.725 238.08 212.058 237.987 212.272 237.8C212.498 237.6 212.645 237.307 212.712 236.92C212.792 236.533 212.832 235.993 212.832 235.3V234.66H214.192V235.22C214.192 236.087 214.112 236.807 213.952 237.38C213.805 237.94 213.518 238.38 213.092 238.7C212.665 239.02 212.052 239.18 211.252 239.18ZM216.945 227.44H223.125V239H221.665V228.58H218.405V239H216.945V227.44ZM225.243 237.98C225.777 237.967 226.177 237.82 226.443 237.54C226.71 237.26 226.917 236.753 227.063 236.02C227.21 235.287 227.337 234.147 227.443 232.6L227.803 227.44H233.083V239H231.623V228.56H229.083L228.803 232.6C228.683 234.4 228.51 235.753 228.283 236.66C228.07 237.553 227.75 238.187 227.323 238.56C226.897 238.92 226.277 239.1 225.463 239.1H225.243V237.98ZM238.104 239.18C237.41 239.18 236.85 238.933 236.424 238.44C235.997 237.947 235.784 237.333 235.784 236.6C235.784 235.84 235.93 235.213 236.224 234.72C236.53 234.227 236.997 233.787 237.624 233.4C238.25 233.013 239.19 232.54 240.444 231.98V231.16C240.444 230.44 240.397 229.88 240.304 229.48C240.224 229.08 240.077 228.793 239.864 228.62C239.664 228.447 239.377 228.36 239.004 228.36C237.924 228.36 237.384 229.02 237.384 230.34V230.74L235.944 230.72C235.957 229.533 236.21 228.66 236.704 228.1C237.197 227.54 237.99 227.26 239.084 227.26C240.097 227.26 240.817 227.567 241.244 228.18C241.684 228.793 241.904 229.76 241.904 231.08V236.7C241.904 237.073 241.91 237.5 241.924 237.98C241.95 238.46 241.977 238.8 242.004 239H240.704L240.484 237.4C240.31 237.907 240.01 238.333 239.584 238.68C239.17 239.013 238.677 239.18 238.104 239.18ZM238.564 237.94C238.964 237.94 239.324 237.807 239.644 237.54C239.977 237.26 240.244 236.933 240.444 236.56V232.96C239.537 233.44 238.877 233.813 238.464 234.08C238.064 234.347 237.757 234.647 237.544 234.98C237.344 235.3 237.244 235.72 237.244 236.24C237.244 236.813 237.364 237.24 237.604 237.52C237.857 237.8 238.177 237.94 238.564 237.94ZM246.373 228.56H243.873V227.44H250.293V228.56H247.833V239H246.373V228.56ZM252.352 227.44H253.812V232.48H257.412V227.44H258.892V239H257.412V233.58H253.812V239H252.352V227.44ZM264.782 239.18C263.635 239.18 262.835 238.827 262.382 238.12C261.928 237.4 261.702 236.3 261.702 234.82V231.62C261.702 230.14 261.928 229.047 262.382 228.34C262.835 227.62 263.635 227.26 264.782 227.26C265.942 227.26 266.748 227.62 267.202 228.34C267.655 229.047 267.882 230.14 267.882 231.62V234.82C267.882 236.3 267.655 237.4 267.202 238.12C266.748 238.827 265.942 239.18 264.782 239.18ZM264.782 238.08C265.262 238.08 265.615 237.953 265.842 237.7C266.082 237.447 266.235 237.107 266.302 236.68C266.368 236.24 266.402 235.647 266.402 234.9V231.54C266.402 230.793 266.368 230.207 266.302 229.78C266.235 229.34 266.082 228.993 265.842 228.74C265.615 228.487 265.262 228.36 264.782 228.36C264.302 228.36 263.948 228.487 263.722 228.74C263.495 228.993 263.348 229.34 263.282 229.78C263.215 230.207 263.182 230.793 263.182 231.54V234.9C263.182 235.647 263.215 236.24 263.282 236.68C263.348 237.107 263.495 237.447 263.722 237.7C263.948 237.953 264.302 238.08 264.782 238.08Z" fill="black"/>
<defs>
<filter id="filter0_d" x="114.474" y="57.4355" width="51.0968" height="76.9497" filterUnits="userSpaceOnUse" color-interpolation-filters="sRGB">
<feFlood flood-opacity="0" result="BackgroundImageFix"/>
<feColorMatrix in="SourceAlpha" type="matrix" values="0 0 0 0 0 0 0 0 0 0 0 0 0 0 0 0 0 0 127 0"/>
<feOffset dy="1"/>
<feGaussianBlur stdDeviation="5"/>
<feColorMatrix type="matrix" values="0 0 0 0 0.991667 0 0 0 0 0.589845 0 0 0 0 0.115694 0 0 0 0.7 0"/>
<feBlend mode="normal" in2="BackgroundImageFix" result="effect1_dropShadow"/>
<feBlend mode="normal" in="SourceGraphic" in2="effect1_dropShadow" result="shape"/>
</filter>
<linearGradient id="paint0_linear" x1="140" y1="23" x2="140" y2="250" gradientUnits="userSpaceOnUse">
<stop stop-color="white" stop-opacity="0.74"/>
<stop offset="1" stop-color="white" stop-opacity="0"/>
</linearGradient>
</defs>
</svg>
