<svg width="281" height="273" viewBox="0 0 281 273" fill="none" xmlns="http://www.w3.org/2000/svg">
<path d="M24.0479 135.662C24.0479 132.901 26.2864 130.662 29.0479 130.662H101.048V147.233H24.0479V135.662Z" fill="#FD961E"/>
<mask id="path-2-inside-1" fill="white">
<path d="M256.048 136.511C256.048 106.523 243.826 77.763 222.072 56.5582C200.318 35.3534 170.813 23.4407 140.048 23.4407C109.283 23.4407 79.7777 35.3534 58.0235 56.5582C36.2693 77.763 24.0479 106.523 24.0479 136.511H39.4484C39.4484 110.504 50.0472 85.5625 68.9133 67.173C87.7794 48.7834 113.367 38.4522 140.048 38.4522C166.729 38.4522 192.316 48.7834 211.182 67.173C230.048 85.5625 240.647 110.504 240.647 136.511H256.048Z"/>
</mask>
<path d="M256.048 136.511C256.048 106.523 243.826 77.763 222.072 56.5582C200.318 35.3534 170.813 23.4407 140.048 23.4407C109.283 23.4407 79.7777 35.3534 58.0235 56.5582C36.2693 77.763 24.0479 106.523 24.0479 136.511H39.4484C39.4484 110.504 50.0472 85.5625 68.9133 67.173C87.7794 48.7834 113.367 38.4522 140.048 38.4522C166.729 38.4522 192.316 48.7834 211.182 67.173C230.048 85.5625 240.647 110.504 240.647 136.511H256.048Z" fill="#534949"/>
<path d="M256.048 136.511C256.048 106.523 243.826 77.763 222.072 56.5582C200.318 35.3534 170.813 23.4407 140.048 23.4407C109.283 23.4407 79.7777 35.3534 58.0235 56.5582C36.2693 77.763 24.0479 106.523 24.0479 136.511H39.4484C39.4484 110.504 50.0472 85.5625 68.9133 67.173C87.7794 48.7834 113.367 38.4522 140.048 38.4522C166.729 38.4522 192.316 48.7834 211.182 67.173C230.048 85.5625 240.647 110.504 240.647 136.511H256.048Z" stroke="#828282" stroke-width="30" mask="url(#path-2-inside-1)"/>
<path d="M256.048 136.511C256.048 106.523 243.826 77.763 222.072 56.5582C200.318 35.3534 170.813 23.4407 140.048 23.4407C109.283 23.4407 79.7777 35.3534 58.0235 56.5582C36.2693 77.763 24.0479 106.523 24.0479 136.511H39.4484C39.4484 110.504 50.0472 85.5625 68.9133 67.173C87.7794 48.7834 113.367 38.4522 140.048 38.4522C166.729 38.4522 192.316 48.7834 211.182 67.173C230.048 85.5625 240.647 110.504 240.647 136.511H256.048Z" stroke="url(#paint0_linear)" stroke-width="30" mask="url(#path-2-inside-1)"/>
<mask id="path-3-inside-2" fill="white">
<path d="M123.991 24.5293C95.3053 28.4373 69.1568 42.6648 50.6879 64.4143C32.219 86.1638 22.766 113.861 24.1876 142.061L39.5696 141.324C38.3367 116.868 46.5347 92.8481 62.5516 73.9861C78.5685 55.1242 101.245 42.7855 126.123 39.3964L123.991 24.5293Z"/>
</mask>
<path d="M123.991 24.5293C95.3053 28.4373 69.1568 42.6648 50.6879 64.4143C32.219 86.1638 22.766 113.861 24.1876 142.061L39.5696 141.324C38.3367 116.868 46.5347 92.8481 62.5516 73.9861C78.5685 55.1242 101.245 42.7855 126.123 39.3964L123.991 24.5293Z" fill="#534949" stroke="#FD961E" stroke-width="30" mask="url(#path-3-inside-2)"/>
<g filter="url(#filter0_d)">
<path d="M131.369 66.4355L155.57 118.703L124.474 123.385L131.369 66.4355Z" fill="#FD961E"/>
</g>
<path d="M70.25 188.184C66.7333 188.184 64.975 186.25 64.975 182.384V181.684H68.4V182.284C68.4333 183.317 68.575 184.075 68.825 184.559C69.0917 185.042 69.575 185.284 70.275 185.284C70.9917 185.284 71.475 185.034 71.725 184.534C71.975 184.017 72.1 183.209 72.1 182.109C72.1 181.009 71.925 180.175 71.575 179.609C71.225 179.042 70.6083 178.734 69.725 178.684H69.15V175.909H69.675C70.575 175.892 71.2 175.65 71.55 175.184C71.9167 174.717 72.1 173.95 72.1 172.884C72.1 171.967 71.9583 171.284 71.675 170.834C71.4083 170.384 70.925 170.159 70.225 170.159C69.5417 170.159 69.075 170.4 68.825 170.884C68.575 171.367 68.4333 172.084 68.4 173.034V173.759H64.975V172.809C64.975 171.075 65.425 169.742 66.325 168.809C67.2417 167.859 68.5417 167.384 70.225 167.384C71.9417 167.384 73.25 167.85 74.15 168.784C75.0667 169.7 75.525 171.017 75.525 172.734C75.525 173.917 75.275 174.9 74.775 175.684C74.2917 176.45 73.65 176.95 72.85 177.184C73.6833 177.467 74.3333 178.009 74.8 178.809C75.2833 179.592 75.525 180.667 75.525 182.034C75.525 183.967 75.1 185.475 74.25 186.559C73.4167 187.642 72.0833 188.184 70.25 188.184ZM84.0773 188.184C82.3607 188.184 81.0523 187.65 80.1523 186.584C79.2523 185.517 78.8023 184.092 78.8023 182.309V173.334C78.8023 171.484 79.2357 170.034 80.1023 168.984C80.969 167.934 82.294 167.409 84.0773 167.409C85.8273 167.409 87.144 167.942 88.0273 169.009C88.9107 170.059 89.3523 171.5 89.3523 173.334V182.309C89.3523 184.092 88.9023 185.517 88.0023 186.584C87.1023 187.65 85.794 188.184 84.0773 188.184ZM84.0773 185.209C85.2607 185.209 85.8523 184.225 85.8523 182.259V173.384C85.8523 172.5 85.7273 171.784 85.4773 171.234C85.244 170.667 84.7773 170.384 84.0773 170.384C83.3607 170.384 82.8857 170.667 82.6523 171.234C82.419 171.784 82.3023 172.5 82.3023 173.384V182.259C82.3023 183.075 82.4273 183.775 82.6773 184.359C82.944 184.925 83.4107 185.209 84.0773 185.209ZM98.4318 188.184C96.7152 188.184 95.4068 187.65 94.5068 186.584C93.6068 185.517 93.1568 184.092 93.1568 182.309V173.334C93.1568 171.484 93.5902 170.034 94.4568 168.984C95.3235 167.934 96.6485 167.409 98.4318 167.409C100.182 167.409 101.499 167.942 102.382 169.009C103.265 170.059 103.707 171.5 103.707 173.334V182.309C103.707 184.092 103.257 185.517 102.357 186.584C101.457 187.65 100.149 188.184 98.4318 188.184ZM98.4318 185.209C99.6152 185.209 100.207 184.225 100.207 182.259V173.384C100.207 172.5 100.082 171.784 99.8318 171.234C99.5985 170.667 99.1318 170.384 98.4318 170.384C97.7152 170.384 97.2402 170.667 97.0068 171.234C96.7735 171.784 96.6568 172.5 96.6568 173.384V182.259C96.6568 183.075 96.7818 183.775 97.0318 184.359C97.2985 184.925 97.7652 185.209 98.4318 185.209ZM115.015 167.634H118.84L121.715 181.659L124.69 167.634H128.415L128.79 187.884H126.04L125.74 173.809L122.865 187.884H120.64L117.715 173.759L117.44 187.884H114.665L115.015 167.634ZM137.056 188.109C135.423 188.109 134.248 187.667 133.531 186.784C132.814 185.884 132.456 184.525 132.456 182.709V174.434C132.456 172.567 132.698 171.192 133.181 170.309C133.681 169.409 134.464 168.759 135.531 168.359C135.998 168.175 136.748 167.959 137.781 167.709C138.498 167.542 139.081 167.392 139.531 167.259C139.981 167.109 140.423 166.892 140.856 166.609L141.206 169.384C140.806 169.6 140.381 169.775 139.931 169.909C139.498 170.025 138.973 170.142 138.356 170.259C137.389 170.459 136.689 170.65 136.256 170.834C135.806 171.05 135.464 171.392 135.231 171.859C135.014 172.325 134.906 172.959 134.906 173.759V175.459C135.239 175.109 135.706 174.817 136.306 174.584C136.906 174.35 137.539 174.234 138.206 174.234C139.373 174.234 140.248 174.642 140.831 175.459C141.431 176.259 141.731 177.6 141.731 179.484V182.634C141.731 184.067 141.539 185.184 141.156 185.984C140.773 186.784 140.239 187.342 139.556 187.659C138.889 187.959 138.056 188.109 137.056 188.109ZM137.156 185.809C137.506 185.809 137.773 185.725 137.956 185.559C138.139 185.375 138.264 185.075 138.331 184.659C138.414 184.225 138.456 183.609 138.456 182.809V178.709C138.456 177.842 138.373 177.234 138.206 176.884C138.039 176.517 137.739 176.334 137.306 176.334C136.706 176.334 136.198 176.75 135.781 177.584V182.684C135.781 183.517 135.814 184.15 135.881 184.584C135.964 185.017 136.106 185.334 136.306 185.534C136.506 185.717 136.789 185.809 137.156 185.809ZM145.079 173.434H147.829V182.134L151.904 173.434H154.554V187.884H151.779V179.184L147.804 187.884H145.079V173.434ZM159.864 175.834H157.214V173.434H165.939V175.834H163.264V187.884H159.864V175.834ZM174.014 167.634H176.264L170.414 187.884H168.164L174.014 167.634ZM183.85 188.109C182.234 188.109 181.059 187.659 180.325 186.759C179.592 185.842 179.225 184.534 179.225 182.834V178.484C179.225 176.767 179.592 175.459 180.325 174.559C181.059 173.659 182.234 173.209 183.85 173.209C185.384 173.209 186.5 173.575 187.2 174.309C187.917 175.042 188.275 176.159 188.275 177.659V178.859H185.075V177.584C185.075 176.834 184.984 176.317 184.8 176.034C184.634 175.75 184.325 175.609 183.875 175.609C183.392 175.609 183.059 175.784 182.875 176.134C182.709 176.484 182.625 177.125 182.625 178.059V183.359C182.625 184.259 182.717 184.875 182.9 185.209C183.1 185.542 183.425 185.709 183.875 185.709C184.342 185.709 184.659 185.559 184.825 185.259C184.992 184.942 185.075 184.442 185.075 183.759V182.209H188.275V183.584C188.275 185.067 187.917 186.192 187.2 186.959C186.484 187.725 185.367 188.109 183.85 188.109ZM195.91 188.109C194.31 188.109 193.135 187.667 192.385 186.784C191.635 185.884 191.26 184.559 191.26 182.809V178.509C191.26 176.742 191.635 175.417 192.385 174.534C193.152 173.65 194.327 173.209 195.91 173.209C197.544 173.209 198.694 173.667 199.36 174.584C200.044 175.5 200.385 176.884 200.385 178.734V180.809H194.635V183.659C194.635 184.359 194.735 184.867 194.935 185.184C195.152 185.5 195.485 185.659 195.935 185.659C196.369 185.659 196.677 185.509 196.86 185.209C197.06 184.892 197.16 184.417 197.16 183.784V182.559H200.36V183.559C200.36 185.042 199.985 186.175 199.235 186.959C198.485 187.725 197.377 188.109 195.91 188.109ZM197.16 179.134V177.759C197.16 177.009 197.069 176.475 196.885 176.159C196.702 175.825 196.377 175.659 195.91 175.659C195.427 175.659 195.094 175.834 194.91 176.184C194.727 176.534 194.635 177.184 194.635 178.134V179.134H197.16ZM203.693 173.434H207.093V179.334H207.768L210.218 173.434H213.818L210.868 180.334L213.893 187.884H210.293L207.768 181.309H207.093V187.884H203.693V173.434Z" fill="black"/>
<path d="M219.138 168.634L216.838 169.534V167.334L220.113 165.684H221.663V177.059H219.138V168.634Z" fill="#60C2C2"/>
<path d="M12.42 222.8H20.7V239H19.18V223.94H13.94V239H12.42V222.8ZM23.6938 240.74C24.6271 240.74 25.2538 240.64 25.5738 240.44C25.8938 240.24 26.0538 239.94 26.0538 239.54C26.0538 239.287 25.9938 238.927 25.8738 238.46C25.7671 237.98 25.7004 237.7 25.6738 237.62L23.2938 227.44H24.7538L26.7538 237.28L28.6938 227.44H30.1738L27.3738 239.82C27.2004 240.553 26.8538 241.08 26.3338 241.4C25.8138 241.72 25.0604 241.88 24.0738 241.88H23.6938V240.74ZM35.6909 239.18C34.7576 239.18 33.9843 238.853 33.3709 238.2C32.7709 237.547 32.4709 236.593 32.4709 235.34V228.22C32.4709 226.78 32.6176 225.72 32.9109 225.04C33.2176 224.347 33.6976 223.853 34.3509 223.56C34.6976 223.413 35.0643 223.293 35.4509 223.2C35.8509 223.107 36.0909 223.053 36.1709 223.04C36.6909 222.933 37.1243 222.833 37.4709 222.74C37.8309 222.633 38.2043 222.493 38.5909 222.32L38.8509 223.54C38.5043 223.713 38.1509 223.847 37.7909 223.94C37.4443 224.033 37.0309 224.127 36.5509 224.22C36.1509 224.3 35.8176 224.373 35.5509 224.44C35.2976 224.507 35.0643 224.6 34.8509 224.72C34.4776 224.92 34.2043 225.247 34.0309 225.7C33.8576 226.153 33.7709 226.807 33.7709 227.66V229.3C34.0243 229.033 34.4176 228.793 34.9509 228.58C35.4843 228.353 35.9776 228.24 36.4309 228.24C37.3243 228.24 38.0043 228.587 38.4709 229.28C38.9376 229.96 39.1709 231.087 39.1709 232.66V234.68C39.1709 236.373 38.8776 237.547 38.2909 238.2C37.7043 238.853 36.8376 239.18 35.6909 239.18ZM35.8109 238.08C36.4643 238.08 36.9376 237.867 37.2309 237.44C37.5376 237 37.6909 236.207 37.6909 235.06V232.28C37.6909 231.16 37.5709 230.38 37.3309 229.94C37.1043 229.5 36.7043 229.28 36.1309 229.28C35.8109 229.28 35.4309 229.373 34.9909 229.56C34.5643 229.747 34.2109 229.953 33.9309 230.18V235.38C33.9309 236.313 34.0976 237 34.4309 237.44C34.7643 237.867 35.2243 238.08 35.8109 238.08ZM41.0419 237.98C41.5752 237.967 41.9752 237.82 42.2419 237.54C42.5085 237.26 42.7152 236.753 42.8619 236.02C43.0085 235.287 43.1352 234.147 43.2419 232.6L43.6019 227.44H48.8819V239H47.4219V228.56H44.8819L44.6019 232.6C44.4819 234.4 44.3085 235.753 44.0819 236.66C43.8685 237.553 43.5485 238.187 43.1219 238.56C42.6952 238.92 42.0752 239.1 41.2619 239.1H41.0419V237.98ZM51.902 227.44H53.142V236.34L57.002 227.44H58.182V239H56.942V230.12L53.122 239H51.902V227.44ZM65.4377 234.18C64.7443 234.313 64.1843 234.38 63.7577 234.38C61.851 234.38 60.8977 233.493 60.8977 231.72V227.44H62.3577V231.76C62.3577 232.8 62.9243 233.32 64.0577 233.32C64.4443 233.32 64.9043 233.26 65.4377 233.14V227.44H66.9177V239H65.4377V234.18ZM69.9669 227.44H71.4269V232.48H75.0269V227.44H76.5069V239H75.0269V233.58H71.4269V239H69.9669V227.44ZM79.5364 227.44H80.9964V232.14H81.6964C83.1764 232.153 84.2031 232.453 84.7764 233.04C85.3497 233.613 85.6364 234.473 85.6364 235.62C85.6364 236.7 85.3364 237.533 84.7364 238.12C84.1497 238.707 83.0964 239 81.5764 239H79.5364V227.44ZM87.0964 227.44H88.5564V239H87.0964V227.44ZM81.5764 238.08C82.6164 238.08 83.3297 237.88 83.7164 237.48C84.1031 237.067 84.2964 236.44 84.2964 235.6C84.2964 234.787 84.1097 234.167 83.7364 233.74C83.3764 233.3 82.6764 233.073 81.6364 233.06H80.9964V238.08H81.5764ZM91.6059 227.44H92.8459V236.34L96.7059 227.44H97.8859V239H96.6459V230.12L92.8259 239H91.6059V227.44ZM94.7659 226.2C93.9926 226.2 93.4059 225.993 93.0059 225.58C92.6059 225.167 92.3926 224.573 92.3659 223.8H93.3059C93.3193 224.813 93.8059 225.32 94.7659 225.32C95.7126 225.32 96.2126 224.813 96.2659 223.8H97.1859C97.1726 224.56 96.9593 225.153 96.5459 225.58C96.1326 225.993 95.5393 226.2 94.7659 226.2ZM106.144 222.8H107.664V239H106.144V222.8ZM111.337 222.8H115.217C116.591 222.8 117.571 223.173 118.157 223.92C118.757 224.667 119.057 225.727 119.057 227.1C119.057 228.353 118.744 229.373 118.117 230.16C117.504 230.947 116.544 231.34 115.237 231.34H112.857V239H111.337V222.8ZM114.797 230.2C115.797 230.2 116.504 229.973 116.917 229.52C117.344 229.053 117.557 228.247 117.557 227.1C117.557 226.26 117.477 225.62 117.317 225.18C117.157 224.727 116.884 224.407 116.497 224.22C116.111 224.033 115.551 223.94 114.817 223.94H112.857V230.2H114.797ZM121.245 231.9H125.485V233.06H121.245V231.9ZM130.243 239.18C129.549 239.18 128.989 238.933 128.563 238.44C128.136 237.947 127.923 237.333 127.923 236.6C127.923 235.84 128.069 235.213 128.363 234.72C128.669 234.227 129.136 233.787 129.763 233.4C130.389 233.013 131.329 232.54 132.583 231.98V231.16C132.583 230.44 132.536 229.88 132.443 229.48C132.363 229.08 132.216 228.793 132.003 228.62C131.803 228.447 131.516 228.36 131.143 228.36C130.063 228.36 129.523 229.02 129.523 230.34V230.74L128.083 230.72C128.096 229.533 128.349 228.66 128.843 228.1C129.336 227.54 130.129 227.26 131.223 227.26C132.236 227.26 132.956 227.567 133.383 228.18C133.823 228.793 134.043 229.76 134.043 231.08V236.7C134.043 237.073 134.049 237.5 134.063 237.98C134.089 238.46 134.116 238.8 134.143 239H132.843L132.623 237.4C132.449 237.907 132.149 238.333 131.723 238.68C131.309 239.013 130.816 239.18 130.243 239.18ZM130.703 237.94C131.103 237.94 131.463 237.807 131.783 237.54C132.116 237.26 132.383 236.933 132.583 236.56V232.96C131.676 233.44 131.016 233.813 130.603 234.08C130.203 234.347 129.896 234.647 129.683 234.98C129.483 235.3 129.383 235.72 129.383 236.24C129.383 236.813 129.503 237.24 129.743 237.52C129.996 237.8 130.316 237.94 130.703 237.94ZM136.072 238C136.565 237.693 136.972 237.26 137.292 236.7C137.612 236.14 137.872 235.34 138.072 234.3C138.272 233.247 138.412 231.86 138.492 230.14L138.672 227.44H143.492V237.94H144.652V241.78H143.552L143.432 239H137.312L137.172 241.78H136.072V238ZM142.072 237.94V228.52H139.852L139.672 230.44C139.565 232.147 139.432 233.493 139.272 234.48C139.112 235.453 138.899 236.207 138.632 236.74C138.379 237.26 138.032 237.66 137.592 237.94H142.072ZM147.186 227.44H148.646V228.4C149.246 227.64 149.986 227.26 150.866 227.26C151.88 227.26 152.566 227.68 152.926 228.52C153.3 229.347 153.486 230.46 153.486 231.86V234.3C153.486 235.887 153.28 237.1 152.866 237.94C152.453 238.767 151.733 239.18 150.706 239.18C149.986 239.18 149.3 238.813 148.646 238.08V242.8H147.186V227.44ZM150.486 238.02C151.1 238.02 151.506 237.733 151.706 237.16C151.92 236.587 152.026 235.647 152.026 234.34V231.86C152.026 230.62 151.92 229.733 151.706 229.2C151.506 228.667 151.086 228.4 150.446 228.4C149.846 228.4 149.246 228.7 148.646 229.3V237.18C149.18 237.74 149.793 238.02 150.486 238.02ZM159.226 239.18C158.48 239.18 157.88 239.033 157.426 238.74C156.973 238.447 156.64 237.973 156.426 237.32C156.213 236.667 156.106 235.78 156.106 234.66V231.74C156.106 230.607 156.213 229.72 156.426 229.08C156.653 228.427 156.993 227.96 157.446 227.68C157.913 227.4 158.513 227.26 159.246 227.26C160.046 227.26 160.66 227.433 161.086 227.78C161.526 228.113 161.826 228.62 161.986 229.3C162.16 229.98 162.246 230.893 162.246 232.04V233.08H157.566V235.1C157.566 236.207 157.693 236.98 157.946 237.42C158.2 237.86 158.626 238.08 159.226 238.08C159.733 238.08 160.12 237.92 160.386 237.6C160.666 237.28 160.806 236.7 160.806 235.86V235.06H162.226V235.7C162.226 236.82 161.993 237.68 161.526 238.28C161.06 238.88 160.293 239.18 159.226 239.18ZM160.806 232.24V231.28C160.806 230.587 160.766 230.04 160.686 229.64C160.62 229.24 160.473 228.927 160.246 228.7C160.02 228.473 159.68 228.36 159.226 228.36C158.813 228.36 158.486 228.453 158.246 228.64C158.006 228.813 157.833 229.127 157.726 229.58C157.62 230.02 157.566 230.647 157.566 231.46V232.24H160.806ZM167.897 239.18C167.044 239.18 166.39 238.993 165.937 238.62C165.484 238.233 165.177 237.72 165.017 237.08C164.87 236.427 164.797 235.607 164.797 234.62V231.92C164.797 230.8 164.884 229.907 165.057 229.24C165.244 228.573 165.557 228.08 165.997 227.76C166.45 227.427 167.084 227.26 167.897 227.26C169.03 227.26 169.804 227.573 170.217 228.2C170.63 228.813 170.837 229.733 170.837 230.96V231.52H169.477V230.96C169.477 230.28 169.424 229.753 169.317 229.38C169.224 229.007 169.064 228.747 168.837 228.6C168.61 228.44 168.297 228.36 167.897 228.36C167.444 228.36 167.097 228.467 166.857 228.68C166.63 228.893 166.47 229.233 166.377 229.7C166.297 230.153 166.257 230.813 166.257 231.68V234.92C166.257 235.72 166.304 236.347 166.397 236.8C166.49 237.253 166.657 237.58 166.897 237.78C167.137 237.98 167.477 238.08 167.917 238.08C168.37 238.08 168.704 237.987 168.917 237.8C169.144 237.6 169.29 237.307 169.357 236.92C169.437 236.533 169.477 235.993 169.477 235.3V234.66H170.837V235.22C170.837 236.087 170.757 236.807 170.597 237.38C170.45 237.94 170.164 238.38 169.737 238.7C169.31 239.02 168.697 239.18 167.897 239.18ZM178.212 231.9H182.452V233.06H178.212V231.9ZM193.352 239.18C192.419 239.18 191.645 238.853 191.032 238.2C190.432 237.547 190.132 236.593 190.132 235.34V228.22C190.132 226.78 190.279 225.72 190.572 225.04C190.879 224.347 191.359 223.853 192.012 223.56C192.359 223.413 192.725 223.293 193.112 223.2C193.512 223.107 193.752 223.053 193.832 223.04C194.352 222.933 194.785 222.833 195.132 222.74C195.492 222.633 195.865 222.493 196.252 222.32L196.512 223.54C196.165 223.713 195.812 223.847 195.452 223.94C195.105 224.033 194.692 224.127 194.212 224.22C193.812 224.3 193.479 224.373 193.212 224.44C192.959 224.507 192.725 224.6 192.512 224.72C192.139 224.92 191.865 225.247 191.692 225.7C191.519 226.153 191.432 226.807 191.432 227.66V229.3C191.685 229.033 192.079 228.793 192.612 228.58C193.145 228.353 193.639 228.24 194.092 228.24C194.985 228.24 195.665 228.587 196.132 229.28C196.599 229.96 196.832 231.087 196.832 232.66V234.68C196.832 236.373 196.539 237.547 195.952 238.2C195.365 238.853 194.499 239.18 193.352 239.18ZM193.472 238.08C194.125 238.08 194.599 237.867 194.892 237.44C195.199 237 195.352 236.207 195.352 235.06V232.28C195.352 231.16 195.232 230.38 194.992 229.94C194.765 229.5 194.365 229.28 193.792 229.28C193.472 229.28 193.092 229.373 192.652 229.56C192.225 229.747 191.872 229.953 191.592 230.18V235.38C191.592 236.313 191.759 237 192.092 237.44C192.425 237.867 192.885 238.08 193.472 238.08ZM202.581 239.18C201.834 239.18 201.234 239.033 200.781 238.74C200.328 238.447 199.994 237.973 199.781 237.32C199.568 236.667 199.461 235.78 199.461 234.66V231.74C199.461 230.607 199.568 229.72 199.781 229.08C200.008 228.427 200.348 227.96 200.801 227.68C201.268 227.4 201.868 227.26 202.601 227.26C203.401 227.26 204.014 227.433 204.441 227.78C204.881 228.113 205.181 228.62 205.341 229.3C205.514 229.98 205.601 230.893 205.601 232.04V233.08H200.921V235.1C200.921 236.207 201.048 236.98 201.301 237.42C201.554 237.86 201.981 238.08 202.581 238.08C203.088 238.08 203.474 237.92 203.741 237.6C204.021 237.28 204.161 236.7 204.161 235.86V235.06H205.581V235.7C205.581 236.82 205.348 237.68 204.881 238.28C204.414 238.88 203.648 239.18 202.581 239.18ZM204.161 232.24V231.28C204.161 230.587 204.121 230.04 204.041 229.64C203.974 229.24 203.828 228.927 203.601 228.7C203.374 228.473 203.034 228.36 202.581 228.36C202.168 228.36 201.841 228.453 201.601 228.64C201.361 228.813 201.188 229.127 201.081 229.58C200.974 230.02 200.921 230.647 200.921 231.46V232.24H204.161ZM211.252 239.18C210.398 239.18 209.745 238.993 209.292 238.62C208.838 238.233 208.532 237.72 208.372 237.08C208.225 236.427 208.152 235.607 208.152 234.62V231.92C208.152 230.8 208.238 229.907 208.412 229.24C208.598 228.573 208.912 228.08 209.352 227.76C209.805 227.427 210.438 227.26 211.252 227.26C212.385 227.26 213.158 227.573 213.572 228.2C213.985 228.813 214.192 229.733 214.192 230.96V231.52H212.832V230.96C212.832 230.28 212.778 229.753 212.672 229.38C212.578 229.007 212.418 228.747 212.192 228.6C211.965 228.44 211.652 228.36 211.252 228.36C210.798 228.36 210.452 228.467 210.212 228.68C209.985 228.893 209.825 229.233 209.732 229.7C209.652 230.153 209.612 230.813 209.612 231.68V234.92C209.612 235.72 209.658 236.347 209.752 236.8C209.845 237.253 210.012 237.58 210.252 237.78C210.492 237.98 210.832 238.08 211.272 238.08C211.725 238.08 212.058 237.987 212.272 237.8C212.498 237.6 212.645 237.307 212.712 236.92C212.792 236.533 212.832 235.993 212.832 235.3V234.66H214.192V235.22C214.192 236.087 214.112 236.807 213.952 237.38C213.805 237.94 213.518 238.38 213.092 238.7C212.665 239.02 212.052 239.18 211.252 239.18ZM216.945 227.44H223.125V239H221.665V228.58H218.405V239H216.945V227.44ZM225.243 237.98C225.777 237.967 226.177 237.82 226.443 237.54C226.71 237.26 226.917 236.753 227.063 236.02C227.21 235.287 227.337 234.147 227.443 232.6L227.803 227.44H233.083V239H231.623V228.56H229.083L228.803 232.6C228.683 234.4 228.51 235.753 228.283 236.66C228.07 237.553 227.75 238.187 227.323 238.56C226.897 238.92 226.277 239.1 225.463 239.1H225.243V237.98ZM238.104 239.18C237.41 239.18 236.85 238.933 236.424 238.44C235.997 237.947 235.784 237.333 235.784 236.6C235.784 235.84 235.93 235.213 236.224 234.72C236.53 234.227 236.997 233.787 237.624 233.4C238.25 233.013 239.19 232.54 240.444 231.98V231.16C240.444 230.44 240.397 229.88 240.304 229.48C240.224 229.08 240.077 228.793 239.864 228.62C239.664 228.447 239.377 228.36 239.004 228.36C237.924 228.36 237.384 229.02 237.384 230.34V230.74L235.944 230.72C235.957 229.533 236.21 228.66 236.704 228.1C237.197 227.54 237.99 227.26 239.084 227.26C240.097 227.26 240.817 227.567 241.244 228.18C241.684 228.793 241.904 229.76 241.904 231.08V236.7C241.904 237.073 241.91 237.5 241.924 237.98C241.95 238.46 241.977 238.8 242.004 239H240.704L240.484 237.4C240.31 237.907 240.01 238.333 239.584 238.68C239.17 239.013 238.677 239.18 238.104 239.18ZM238.564 237.94C238.964 237.94 239.324 237.807 239.644 237.54C239.977 237.26 240.244 236.933 240.444 236.56V232.96C239.537 233.44 238.877 233.813 238.464 234.08C238.064 234.347 237.757 234.647 237.544 234.98C237.344 235.3 237.244 235.72 237.244 236.24C237.244 236.813 237.364 237.24 237.604 237.52C237.857 237.8 238.177 237.94 238.564 237.94ZM246.373 228.56H243.873V227.44H250.293V228.56H247.833V239H246.373V228.56ZM252.352 227.44H253.812V232.48H257.412V227.44H258.892V239H257.412V233.58H253.812V239H252.352V227.44ZM264.782 239.18C263.635 239.18 262.835 238.827 262.382 238.12C261.928 237.4 261.702 236.3 261.702 234.82V231.62C261.702 230.14 261.928 229.047 262.382 228.34C262.835 227.62 263.635 227.26 264.782 227.26C265.942 227.26 266.748 227.62 267.202 228.34C267.655 229.047 267.882 230.14 267.882 231.62V234.82C267.882 236.3 267.655 237.4 267.202 238.12C266.748 238.827 265.942 239.18 264.782 239.18ZM264.782 238.08C265.262 238.08 265.615 237.953 265.842 237.7C266.082 237.447 266.235 237.107 266.302 236.68C266.368 236.24 266.402 235.647 266.402 234.9V231.54C266.402 230.793 266.368 230.207 266.302 229.78C266.235 229.34 266.082 228.993 265.842 228.74C265.615 228.487 265.262 228.36 264.782 228.36C264.302 228.36 263.948 228.487 263.722 228.74C263.495 228.993 263.348 229.34 263.282 229.78C263.215 230.207 263.182 230.793 263.182 231.54V234.9C263.182 235.647 263.215 236.24 263.282 236.68C263.348 237.107 263.495 237.447 263.722 237.7C263.948 237.953 264.302 238.08 264.782 238.08Z" fill="black"/>
<defs>
<filter id="filter0_d" x="114.474" y="57.4355" width="51.0968" height="76.9497" filterUnits="userSpaceOnUse" color-interpolation-filters="sRGB">
<feFlood flood-opacity="0" result="BackgroundImageFix"/>
<feColorMatrix in="SourceAlpha" type="matrix" values="0 0 0 0 0 0 0 0 0 0 0 0 0 0 0 0 0 0 127 0"/>
<feOffset dy="1"/>
<feGaussianBlur stdDeviation="5"/>
<feColorMatrix type="matrix" values="0 0 0 0 0.991667 0 0 0 0 0.589845 0 0 0 0 0.115694 0 0 0 0.7 0"/>
<feBlend mode="normal" in2="BackgroundImageFix" result="effect1_dropShadow"/>
<feBlend mode="normal" in="SourceGraphic" in2="effect1_dropShadow" result="shape"/>
</filter>
<linearGradient id="paint0_linear" x1="140.048" y1="23.4407" x2="140.048" y2="249.581" gradientUnits="userSpaceOnUse">
<stop stop-color="white" stop-opacity="0.74"/>
<stop offset="1" stop-color="white" stop-opacity="0"/>
</linearGradient>
</defs>
</svg>
