<svg width="324" height="274" viewBox="0 0 324 274" fill="none" xmlns="http://www.w3.org/2000/svg">
<path d="M46.0479 137.25C46.0479 134.489 48.2864 132.25 51.0479 132.25H123.048V146.647H46.0479V137.25Z" fill="#FD961E"/>
<mask id="path-2-inside-1" fill="white">
<path d="M278.048 137.331C278.048 111.278 265.826 86.2916 244.072 67.869C222.318 49.4465 192.813 39.0968 162.048 39.0968C131.283 39.0968 101.778 49.4465 80.0235 67.869C58.2693 86.2916 46.0479 111.278 46.0479 137.331L61.4484 137.331C61.4484 114.737 72.0472 93.0678 90.9133 77.0911C109.779 61.1144 135.367 52.1387 162.048 52.1387C188.728 52.1387 214.316 61.1144 233.182 77.0911C252.048 93.0678 262.647 114.737 262.647 137.331H278.048Z"/>
</mask>
<path d="M278.048 137.331C278.048 111.278 265.826 86.2916 244.072 67.869C222.318 49.4465 192.813 39.0968 162.048 39.0968C131.283 39.0968 101.778 49.4465 80.0235 67.869C58.2693 86.2916 46.0479 111.278 46.0479 137.331L61.4484 137.331C61.4484 114.737 72.0472 93.0678 90.9133 77.0911C109.779 61.1144 135.367 52.1387 162.048 52.1387C188.728 52.1387 214.316 61.1144 233.182 77.0911C252.048 93.0678 262.647 114.737 262.647 137.331H278.048Z" fill="#534949"/>
<path d="M278.048 137.331C278.048 111.278 265.826 86.2916 244.072 67.869C222.318 49.4465 192.813 39.0968 162.048 39.0968C131.283 39.0968 101.778 49.4465 80.0235 67.869C58.2693 86.2916 46.0479 111.278 46.0479 137.331L61.4484 137.331C61.4484 114.737 72.0472 93.0678 90.9133 77.0911C109.779 61.1144 135.367 52.1387 162.048 52.1387C188.728 52.1387 214.316 61.1144 233.182 77.0911C252.048 93.0678 262.647 114.737 262.647 137.331H278.048Z" stroke="#828282" stroke-width="30" mask="url(#path-2-inside-1)"/>
<path d="M278.048 137.331C278.048 111.278 265.826 86.2916 244.072 67.869C222.318 49.4465 192.813 39.0968 162.048 39.0968C131.283 39.0968 101.778 49.4465 80.0235 67.869C58.2693 86.2916 46.0479 111.278 46.0479 137.331L61.4484 137.331C61.4484 114.737 72.0472 93.0678 90.9133 77.0911C109.779 61.1144 135.367 52.1387 162.048 52.1387C188.728 52.1387 214.316 61.1144 233.182 77.0911C252.048 93.0678 262.647 114.737 262.647 137.331H278.048Z" stroke="url(#paint0_linear)" stroke-width="30" mask="url(#path-2-inside-1)"/>
<mask id="path-3-inside-2" fill="white">
<path d="M263.488 89.683C250.891 70.4489 231.035 55.3516 207.102 46.809C183.168 38.2663 156.542 36.7727 131.487 42.5674C106.432 48.362 84.3985 61.1096 68.9149 78.7685C53.4314 96.4274 45.3938 117.976 46.0895 139.963L61.4845 139.613C60.8811 120.546 67.8516 101.858 81.2795 86.5435C94.7074 71.2291 113.816 60.1739 135.544 55.1486C157.273 50.1232 180.364 51.4185 201.12 58.827C221.876 66.2355 239.096 79.3285 250.021 96.009L263.488 89.683Z"/>
</mask>
<path d="M263.488 89.683C250.891 70.4489 231.035 55.3516 207.102 46.809C183.168 38.2663 156.542 36.7727 131.487 42.5674C106.432 48.362 84.3985 61.1096 68.9149 78.7685C53.4314 96.4274 45.3938 117.976 46.0895 139.963L61.4845 139.613C60.8811 120.546 67.8516 101.858 81.2795 86.5435C94.7074 71.2291 113.816 60.1739 135.544 55.1486C157.273 50.1232 180.364 51.4185 201.12 58.827C221.876 66.2355 239.096 79.3285 250.021 96.009L263.488 89.683Z" fill="#534949" stroke="#FD961E" stroke-width="30" mask="url(#path-3-inside-2)"/>
<g filter="url(#filter0_d)">
<path d="M204.783 107.699L153.613 132.282L145.971 106.434L204.783 107.699Z" fill="#FD961E"/>
</g>
<path d="M92.225 186.069C90.3083 186.069 88.975 185.56 88.225 184.544C87.4917 183.51 87.125 181.985 87.125 179.969H90.5C90.5 181.119 90.625 181.985 90.875 182.569C91.125 183.152 91.6167 183.444 92.35 183.444C92.9 183.444 93.3083 183.269 93.575 182.919C93.8417 182.552 94.0083 182.069 94.075 181.469C94.1583 180.852 94.2 180.002 94.2 178.919C94.2 177.585 94.075 176.602 93.825 175.969C93.575 175.335 93.0583 175.019 92.275 175.019C91.8083 175.019 91.4083 175.177 91.075 175.494C90.7583 175.81 90.525 176.244 90.375 176.794H87.4L87.6 165.519H96.7V168.619H90.5L90.3 173.494C90.5833 173.177 90.9917 172.927 91.525 172.744C92.0583 172.544 92.6417 172.444 93.275 172.444C94.7083 172.444 95.7667 172.994 96.45 174.094C97.15 175.177 97.5 176.71 97.5 178.694C97.5 180.244 97.35 181.552 97.05 182.619C96.7667 183.685 96.2417 184.527 95.475 185.144C94.7083 185.76 93.625 186.069 92.225 186.069ZM106.004 186.069C104.287 186.069 102.979 185.535 102.079 184.469C101.179 183.402 100.729 181.977 100.729 180.194V171.219C100.729 169.369 101.162 167.919 102.029 166.869C102.896 165.819 104.221 165.294 106.004 165.294C107.754 165.294 109.071 165.827 109.954 166.894C110.837 167.944 111.279 169.385 111.279 171.219V180.194C111.279 181.977 110.829 183.402 109.929 184.469C109.029 185.535 107.721 186.069 106.004 186.069ZM106.004 183.094C107.187 183.094 107.779 182.11 107.779 180.144V171.269C107.779 170.385 107.654 169.669 107.404 169.119C107.171 168.552 106.704 168.269 106.004 168.269C105.287 168.269 104.812 168.552 104.579 169.119C104.346 169.669 104.229 170.385 104.229 171.269V180.144C104.229 180.96 104.354 181.66 104.604 182.244C104.871 182.81 105.337 183.094 106.004 183.094ZM122.588 165.519H126.413L129.288 179.544L132.263 165.519H135.988L136.363 185.769H133.613L133.313 171.694L130.438 185.769H128.213L125.288 171.644L125.013 185.769H122.238L122.588 165.519ZM144.628 185.994C142.995 185.994 141.82 185.552 141.103 184.669C140.386 183.769 140.028 182.41 140.028 180.594V172.319C140.028 170.452 140.27 169.077 140.753 168.194C141.253 167.294 142.036 166.644 143.103 166.244C143.57 166.06 144.32 165.844 145.353 165.594C146.07 165.427 146.653 165.277 147.103 165.144C147.553 164.994 147.995 164.777 148.428 164.494L148.778 167.269C148.378 167.485 147.953 167.66 147.503 167.794C147.07 167.91 146.545 168.027 145.928 168.144C144.961 168.344 144.261 168.535 143.828 168.719C143.378 168.935 143.036 169.277 142.803 169.744C142.586 170.21 142.478 170.844 142.478 171.644V173.344C142.811 172.994 143.278 172.702 143.878 172.469C144.478 172.235 145.111 172.119 145.778 172.119C146.945 172.119 147.82 172.527 148.403 173.344C149.003 174.144 149.303 175.485 149.303 177.369V180.519C149.303 181.952 149.111 183.069 148.728 183.869C148.345 184.669 147.811 185.227 147.128 185.544C146.461 185.844 145.628 185.994 144.628 185.994ZM144.728 183.694C145.078 183.694 145.345 183.61 145.528 183.444C145.711 183.26 145.836 182.96 145.903 182.544C145.986 182.11 146.028 181.494 146.028 180.694V176.594C146.028 175.727 145.945 175.119 145.778 174.769C145.611 174.402 145.311 174.219 144.878 174.219C144.278 174.219 143.77 174.635 143.353 175.469V180.569C143.353 181.402 143.386 182.035 143.453 182.469C143.536 182.902 143.678 183.219 143.878 183.419C144.078 183.602 144.361 183.694 144.728 183.694ZM152.652 171.319H155.402V180.019L159.477 171.319H162.127V185.769H159.352V177.069L155.377 185.769H152.652V171.319ZM167.437 173.719H164.787V171.319H173.512V173.719H170.837V185.769H167.437V173.719ZM181.586 165.519H183.836L177.986 185.769H175.736L181.586 165.519ZM191.422 185.994C189.806 185.994 188.631 185.544 187.897 184.644C187.164 183.727 186.797 182.419 186.797 180.719V176.369C186.797 174.652 187.164 173.344 187.897 172.444C188.631 171.544 189.806 171.094 191.422 171.094C192.956 171.094 194.072 171.46 194.772 172.194C195.489 172.927 195.847 174.044 195.847 175.544V176.744H192.647V175.469C192.647 174.719 192.556 174.202 192.372 173.919C192.206 173.635 191.897 173.494 191.447 173.494C190.964 173.494 190.631 173.669 190.447 174.019C190.281 174.369 190.197 175.01 190.197 175.944V181.244C190.197 182.144 190.289 182.76 190.472 183.094C190.672 183.427 190.997 183.594 191.447 183.594C191.914 183.594 192.231 183.444 192.397 183.144C192.564 182.827 192.647 182.327 192.647 181.644V180.094H195.847V181.469C195.847 182.952 195.489 184.077 194.772 184.844C194.056 185.61 192.939 185.994 191.422 185.994ZM203.483 185.994C201.883 185.994 200.708 185.552 199.958 184.669C199.208 183.769 198.833 182.444 198.833 180.694V176.394C198.833 174.627 199.208 173.302 199.958 172.419C200.724 171.535 201.899 171.094 203.483 171.094C205.116 171.094 206.266 171.552 206.933 172.469C207.616 173.385 207.958 174.769 207.958 176.619V178.694H202.208V181.544C202.208 182.244 202.308 182.752 202.508 183.069C202.724 183.385 203.058 183.544 203.508 183.544C203.941 183.544 204.249 183.394 204.433 183.094C204.633 182.777 204.733 182.302 204.733 181.669V180.444H207.933V181.444C207.933 182.927 207.558 184.06 206.808 184.844C206.058 185.61 204.949 185.994 203.483 185.994ZM204.733 177.019V175.644C204.733 174.894 204.641 174.36 204.458 174.044C204.274 173.71 203.949 173.544 203.483 173.544C202.999 173.544 202.666 173.719 202.483 174.069C202.299 174.419 202.208 175.069 202.208 176.019V177.019H204.733ZM211.265 171.319H214.665V177.219H215.34L217.79 171.319H221.39L218.44 178.219L221.465 185.769H217.865L215.34 179.194H214.665V185.769H211.265V171.319Z" fill="black"/>
<path d="M226.71 166.519L224.41 167.419V165.219L227.685 163.569H229.235V174.944H226.71V166.519Z" fill="#60C2C2"/>
<path d="M34.42 208.452H42.7V224.652H41.18V209.592H35.94V224.652H34.42V208.452ZM45.6938 226.392C46.6271 226.392 47.2538 226.292 47.5738 226.092C47.8938 225.892 48.0538 225.592 48.0538 225.192C48.0538 224.938 47.9938 224.578 47.8738 224.112C47.7671 223.632 47.7004 223.352 47.6738 223.272L45.2938 213.092H46.7538L48.7538 222.932L50.6938 213.092H52.1738L49.3738 225.472C49.2004 226.205 48.8538 226.732 48.3338 227.052C47.8138 227.372 47.0604 227.532 46.0738 227.532H45.6938V226.392ZM57.6909 224.832C56.7576 224.832 55.9843 224.505 55.3709 223.852C54.7709 223.198 54.4709 222.245 54.4709 220.992V213.872C54.4709 212.432 54.6176 211.372 54.9109 210.692C55.2176 209.998 55.6976 209.505 56.3509 209.212C56.6976 209.065 57.0643 208.945 57.4509 208.852C57.8509 208.758 58.0909 208.705 58.1709 208.692C58.6909 208.585 59.1243 208.485 59.4709 208.392C59.8309 208.285 60.2043 208.145 60.5909 207.972L60.8509 209.192C60.5043 209.365 60.1509 209.498 59.7909 209.592C59.4443 209.685 59.0309 209.778 58.5509 209.872C58.1509 209.952 57.8176 210.025 57.5509 210.092C57.2976 210.158 57.0643 210.252 56.8509 210.372C56.4776 210.572 56.2043 210.898 56.0309 211.352C55.8576 211.805 55.7709 212.458 55.7709 213.312V214.952C56.0243 214.685 56.4176 214.445 56.9509 214.232C57.4843 214.005 57.9776 213.892 58.4309 213.892C59.3243 213.892 60.0043 214.238 60.4709 214.932C60.9376 215.612 61.1709 216.738 61.1709 218.312V220.332C61.1709 222.025 60.8776 223.198 60.2909 223.852C59.7043 224.505 58.8376 224.832 57.6909 224.832ZM57.8109 223.732C58.4643 223.732 58.9376 223.518 59.2309 223.092C59.5376 222.652 59.6909 221.858 59.6909 220.712V217.932C59.6909 216.812 59.5709 216.032 59.3309 215.592C59.1043 215.152 58.7043 214.932 58.1309 214.932C57.8109 214.932 57.4309 215.025 56.9909 215.212C56.5643 215.398 56.2109 215.605 55.9309 215.832V221.032C55.9309 221.965 56.0976 222.652 56.4309 223.092C56.7643 223.518 57.2243 223.732 57.8109 223.732ZM63.0419 223.632C63.5752 223.618 63.9752 223.472 64.2419 223.192C64.5085 222.912 64.7152 222.405 64.8619 221.672C65.0085 220.938 65.1352 219.798 65.2419 218.252L65.6019 213.092H70.8819V224.652H69.4219V214.212H66.8819L66.6019 218.252C66.4819 220.052 66.3085 221.405 66.0819 222.312C65.8685 223.205 65.5485 223.838 65.1219 224.212C64.6952 224.572 64.0752 224.752 63.2619 224.752H63.0419V223.632ZM73.902 213.092H75.142V221.992L79.002 213.092H80.182V224.652H78.942V215.772L75.122 224.652H73.902V213.092ZM87.4377 219.832C86.7443 219.965 86.1843 220.032 85.7577 220.032C83.851 220.032 82.8977 219.145 82.8977 217.372V213.092H84.3577V217.412C84.3577 218.452 84.9243 218.972 86.0577 218.972C86.4443 218.972 86.9043 218.912 87.4377 218.792V213.092H88.9177V224.652H87.4377V219.832ZM91.9669 213.092H93.4269V218.132H97.0269V213.092H98.5069V224.652H97.0269V219.232H93.4269V224.652H91.9669V213.092ZM101.536 213.092H102.996V217.792H103.696C105.176 217.805 106.203 218.105 106.776 218.692C107.35 219.265 107.636 220.125 107.636 221.272C107.636 222.352 107.336 223.185 106.736 223.772C106.15 224.358 105.096 224.652 103.576 224.652H101.536V213.092ZM109.096 213.092H110.556V224.652H109.096V213.092ZM103.576 223.732C104.616 223.732 105.33 223.532 105.716 223.132C106.103 222.718 106.296 222.092 106.296 221.252C106.296 220.438 106.11 219.818 105.736 219.392C105.376 218.952 104.676 218.725 103.636 218.712H102.996V223.732H103.576ZM113.606 213.092H114.846V221.992L118.706 213.092H119.886V224.652H118.646V215.772L114.826 224.652H113.606V213.092ZM116.766 211.852C115.993 211.852 115.406 211.645 115.006 211.232C114.606 210.818 114.393 210.225 114.366 209.452H115.306C115.319 210.465 115.806 210.972 116.766 210.972C117.713 210.972 118.213 210.465 118.266 209.452H119.186C119.173 210.212 118.959 210.805 118.546 211.232C118.133 211.645 117.539 211.852 116.766 211.852ZM128.144 208.452H129.664V224.652H128.144V208.452ZM133.337 208.452H137.217C138.591 208.452 139.571 208.825 140.157 209.572C140.757 210.318 141.057 211.378 141.057 212.752C141.057 214.005 140.744 215.025 140.117 215.812C139.504 216.598 138.544 216.992 137.237 216.992H134.857V224.652H133.337V208.452ZM136.797 215.852C137.797 215.852 138.504 215.625 138.917 215.172C139.344 214.705 139.557 213.898 139.557 212.752C139.557 211.912 139.477 211.272 139.317 210.832C139.157 210.378 138.884 210.058 138.497 209.872C138.111 209.685 137.551 209.592 136.817 209.592H134.857V215.852H136.797ZM143.245 217.552H147.485V218.712H143.245V217.552ZM152.243 224.832C151.549 224.832 150.989 224.585 150.563 224.092C150.136 223.598 149.923 222.985 149.923 222.252C149.923 221.492 150.069 220.865 150.363 220.372C150.669 219.878 151.136 219.438 151.763 219.052C152.389 218.665 153.329 218.192 154.583 217.632V216.812C154.583 216.092 154.536 215.532 154.443 215.132C154.363 214.732 154.216 214.445 154.003 214.272C153.803 214.098 153.516 214.012 153.143 214.012C152.063 214.012 151.523 214.672 151.523 215.992V216.392L150.083 216.372C150.096 215.185 150.349 214.312 150.843 213.752C151.336 213.192 152.129 212.912 153.223 212.912C154.236 212.912 154.956 213.218 155.383 213.832C155.823 214.445 156.043 215.412 156.043 216.732V222.352C156.043 222.725 156.049 223.152 156.063 223.632C156.089 224.112 156.116 224.452 156.143 224.652H154.843L154.623 223.052C154.449 223.558 154.149 223.985 153.723 224.332C153.309 224.665 152.816 224.832 152.243 224.832ZM152.703 223.592C153.103 223.592 153.463 223.458 153.783 223.192C154.116 222.912 154.383 222.585 154.583 222.212V218.612C153.676 219.092 153.016 219.465 152.603 219.732C152.203 219.998 151.896 220.298 151.683 220.632C151.483 220.952 151.383 221.372 151.383 221.892C151.383 222.465 151.503 222.892 151.743 223.172C151.996 223.452 152.316 223.592 152.703 223.592ZM158.072 223.652C158.565 223.345 158.972 222.912 159.292 222.352C159.612 221.792 159.872 220.992 160.072 219.952C160.272 218.898 160.412 217.512 160.492 215.792L160.672 213.092H165.492V223.592H166.652V227.432H165.552L165.432 224.652H159.312L159.172 227.432H158.072V223.652ZM164.072 223.592V214.172H161.852L161.672 216.092C161.565 217.798 161.432 219.145 161.272 220.132C161.112 221.105 160.899 221.858 160.632 222.392C160.379 222.912 160.032 223.312 159.592 223.592H164.072ZM169.186 213.092H170.646V214.052C171.246 213.292 171.986 212.912 172.866 212.912C173.88 212.912 174.566 213.332 174.926 214.172C175.3 214.998 175.486 216.112 175.486 217.512V219.952C175.486 221.538 175.28 222.752 174.866 223.592C174.453 224.418 173.733 224.832 172.706 224.832C171.986 224.832 171.3 224.465 170.646 223.732V228.452H169.186V213.092ZM172.486 223.672C173.1 223.672 173.506 223.385 173.706 222.812C173.92 222.238 174.026 221.298 174.026 219.992V217.512C174.026 216.272 173.92 215.385 173.706 214.852C173.506 214.318 173.086 214.052 172.446 214.052C171.846 214.052 171.246 214.352 170.646 214.952V222.832C171.18 223.392 171.793 223.672 172.486 223.672ZM181.226 224.832C180.48 224.832 179.88 224.685 179.426 224.392C178.973 224.098 178.64 223.625 178.426 222.972C178.213 222.318 178.106 221.432 178.106 220.312V217.392C178.106 216.258 178.213 215.372 178.426 214.732C178.653 214.078 178.993 213.612 179.446 213.332C179.913 213.052 180.513 212.912 181.246 212.912C182.046 212.912 182.66 213.085 183.086 213.432C183.526 213.765 183.826 214.272 183.986 214.952C184.16 215.632 184.246 216.545 184.246 217.692V218.732H179.566V220.752C179.566 221.858 179.693 222.632 179.946 223.072C180.2 223.512 180.626 223.732 181.226 223.732C181.733 223.732 182.12 223.572 182.386 223.252C182.666 222.932 182.806 222.352 182.806 221.512V220.712H184.226V221.352C184.226 222.472 183.993 223.332 183.526 223.932C183.06 224.532 182.293 224.832 181.226 224.832ZM182.806 217.892V216.932C182.806 216.238 182.766 215.692 182.686 215.292C182.62 214.892 182.473 214.578 182.246 214.352C182.02 214.125 181.68 214.012 181.226 214.012C180.813 214.012 180.486 214.105 180.246 214.292C180.006 214.465 179.833 214.778 179.726 215.232C179.62 215.672 179.566 216.298 179.566 217.112V217.892H182.806ZM189.897 224.832C189.044 224.832 188.39 224.645 187.937 224.272C187.484 223.885 187.177 223.372 187.017 222.732C186.87 222.078 186.797 221.258 186.797 220.272V217.572C186.797 216.452 186.884 215.558 187.057 214.892C187.244 214.225 187.557 213.732 187.997 213.412C188.45 213.078 189.084 212.912 189.897 212.912C191.03 212.912 191.804 213.225 192.217 213.852C192.63 214.465 192.837 215.385 192.837 216.612V217.172H191.477V216.612C191.477 215.932 191.424 215.405 191.317 215.032C191.224 214.658 191.064 214.398 190.837 214.252C190.61 214.092 190.297 214.012 189.897 214.012C189.444 214.012 189.097 214.118 188.857 214.332C188.63 214.545 188.47 214.885 188.377 215.352C188.297 215.805 188.257 216.465 188.257 217.332V220.572C188.257 221.372 188.304 221.998 188.397 222.452C188.49 222.905 188.657 223.232 188.897 223.432C189.137 223.632 189.477 223.732 189.917 223.732C190.37 223.732 190.704 223.638 190.917 223.452C191.144 223.252 191.29 222.958 191.357 222.572C191.437 222.185 191.477 221.645 191.477 220.952V220.312H192.837V220.872C192.837 221.738 192.757 222.458 192.597 223.032C192.45 223.592 192.164 224.032 191.737 224.352C191.31 224.672 190.697 224.832 189.897 224.832ZM200.212 217.552H204.452V218.712H200.212V217.552ZM215.352 224.832C214.419 224.832 213.645 224.505 213.032 223.852C212.432 223.198 212.132 222.245 212.132 220.992V213.872C212.132 212.432 212.279 211.372 212.572 210.692C212.879 209.998 213.359 209.505 214.012 209.212C214.359 209.065 214.725 208.945 215.112 208.852C215.512 208.758 215.752 208.705 215.832 208.692C216.352 208.585 216.785 208.485 217.132 208.392C217.492 208.285 217.865 208.145 218.252 207.972L218.512 209.192C218.165 209.365 217.812 209.498 217.452 209.592C217.105 209.685 216.692 209.778 216.212 209.872C215.812 209.952 215.479 210.025 215.212 210.092C214.959 210.158 214.725 210.252 214.512 210.372C214.139 210.572 213.865 210.898 213.692 211.352C213.519 211.805 213.432 212.458 213.432 213.312V214.952C213.685 214.685 214.079 214.445 214.612 214.232C215.145 214.005 215.639 213.892 216.092 213.892C216.985 213.892 217.665 214.238 218.132 214.932C218.599 215.612 218.832 216.738 218.832 218.312V220.332C218.832 222.025 218.539 223.198 217.952 223.852C217.365 224.505 216.499 224.832 215.352 224.832ZM215.472 223.732C216.125 223.732 216.599 223.518 216.892 223.092C217.199 222.652 217.352 221.858 217.352 220.712V217.932C217.352 216.812 217.232 216.032 216.992 215.592C216.765 215.152 216.365 214.932 215.792 214.932C215.472 214.932 215.092 215.025 214.652 215.212C214.225 215.398 213.872 215.605 213.592 215.832V221.032C213.592 221.965 213.759 222.652 214.092 223.092C214.425 223.518 214.885 223.732 215.472 223.732ZM224.581 224.832C223.834 224.832 223.234 224.685 222.781 224.392C222.328 224.098 221.994 223.625 221.781 222.972C221.568 222.318 221.461 221.432 221.461 220.312V217.392C221.461 216.258 221.568 215.372 221.781 214.732C222.008 214.078 222.348 213.612 222.801 213.332C223.268 213.052 223.868 212.912 224.601 212.912C225.401 212.912 226.014 213.085 226.441 213.432C226.881 213.765 227.181 214.272 227.341 214.952C227.514 215.632 227.601 216.545 227.601 217.692V218.732H222.921V220.752C222.921 221.858 223.048 222.632 223.301 223.072C223.554 223.512 223.981 223.732 224.581 223.732C225.088 223.732 225.474 223.572 225.741 223.252C226.021 222.932 226.161 222.352 226.161 221.512V220.712H227.581V221.352C227.581 222.472 227.348 223.332 226.881 223.932C226.414 224.532 225.648 224.832 224.581 224.832ZM226.161 217.892V216.932C226.161 216.238 226.121 215.692 226.041 215.292C225.974 214.892 225.828 214.578 225.601 214.352C225.374 214.125 225.034 214.012 224.581 214.012C224.168 214.012 223.841 214.105 223.601 214.292C223.361 214.465 223.188 214.778 223.081 215.232C222.974 215.672 222.921 216.298 222.921 217.112V217.892H226.161ZM233.252 224.832C232.398 224.832 231.745 224.645 231.292 224.272C230.838 223.885 230.532 223.372 230.372 222.732C230.225 222.078 230.152 221.258 230.152 220.272V217.572C230.152 216.452 230.238 215.558 230.412 214.892C230.598 214.225 230.912 213.732 231.352 213.412C231.805 213.078 232.438 212.912 233.252 212.912C234.385 212.912 235.158 213.225 235.572 213.852C235.985 214.465 236.192 215.385 236.192 216.612V217.172H234.832V216.612C234.832 215.932 234.778 215.405 234.672 215.032C234.578 214.658 234.418 214.398 234.192 214.252C233.965 214.092 233.652 214.012 233.252 214.012C232.798 214.012 232.452 214.118 232.212 214.332C231.985 214.545 231.825 214.885 231.732 215.352C231.652 215.805 231.612 216.465 231.612 217.332V220.572C231.612 221.372 231.658 221.998 231.752 222.452C231.845 222.905 232.012 223.232 232.252 223.432C232.492 223.632 232.832 223.732 233.272 223.732C233.725 223.732 234.058 223.638 234.272 223.452C234.498 223.252 234.645 222.958 234.712 222.572C234.792 222.185 234.832 221.645 234.832 220.952V220.312H236.192V220.872C236.192 221.738 236.112 222.458 235.952 223.032C235.805 223.592 235.518 224.032 235.092 224.352C234.665 224.672 234.052 224.832 233.252 224.832ZM238.945 213.092H245.125V224.652H243.665V214.232H240.405V224.652H238.945V213.092ZM247.243 223.632C247.777 223.618 248.177 223.472 248.443 223.192C248.71 222.912 248.917 222.405 249.063 221.672C249.21 220.938 249.337 219.798 249.443 218.252L249.803 213.092H255.083V224.652H253.623V214.212H251.083L250.803 218.252C250.683 220.052 250.51 221.405 250.283 222.312C250.07 223.205 249.75 223.838 249.323 224.212C248.897 224.572 248.277 224.752 247.463 224.752H247.243V223.632ZM260.104 224.832C259.41 224.832 258.85 224.585 258.424 224.092C257.997 223.598 257.784 222.985 257.784 222.252C257.784 221.492 257.93 220.865 258.224 220.372C258.53 219.878 258.997 219.438 259.624 219.052C260.25 218.665 261.19 218.192 262.444 217.632V216.812C262.444 216.092 262.397 215.532 262.304 215.132C262.224 214.732 262.077 214.445 261.864 214.272C261.664 214.098 261.377 214.012 261.004 214.012C259.924 214.012 259.384 214.672 259.384 215.992V216.392L257.944 216.372C257.957 215.185 258.21 214.312 258.704 213.752C259.197 213.192 259.99 212.912 261.084 212.912C262.097 212.912 262.817 213.218 263.244 213.832C263.684 214.445 263.904 215.412 263.904 216.732V222.352C263.904 222.725 263.91 223.152 263.924 223.632C263.95 224.112 263.977 224.452 264.004 224.652H262.704L262.484 223.052C262.31 223.558 262.01 223.985 261.584 224.332C261.17 224.665 260.677 224.832 260.104 224.832ZM260.564 223.592C260.964 223.592 261.324 223.458 261.644 223.192C261.977 222.912 262.244 222.585 262.444 222.212V218.612C261.537 219.092 260.877 219.465 260.464 219.732C260.064 219.998 259.757 220.298 259.544 220.632C259.344 220.952 259.244 221.372 259.244 221.892C259.244 222.465 259.364 222.892 259.604 223.172C259.857 223.452 260.177 223.592 260.564 223.592ZM268.373 214.212H265.873V213.092H272.293V214.212H269.833V224.652H268.373V214.212ZM274.352 213.092H275.812V218.132H279.412V213.092H280.892V224.652H279.412V219.232H275.812V224.652H274.352V213.092ZM286.782 224.832C285.635 224.832 284.835 224.478 284.382 223.772C283.928 223.052 283.702 221.952 283.702 220.472V217.272C283.702 215.792 283.928 214.698 284.382 213.992C284.835 213.272 285.635 212.912 286.782 212.912C287.942 212.912 288.748 213.272 289.202 213.992C289.655 214.698 289.882 215.792 289.882 217.272V220.472C289.882 221.952 289.655 223.052 289.202 223.772C288.748 224.478 287.942 224.832 286.782 224.832ZM286.782 223.732C287.262 223.732 287.615 223.605 287.842 223.352C288.082 223.098 288.235 222.758 288.302 222.332C288.368 221.892 288.402 221.298 288.402 220.552V217.192C288.402 216.445 288.368 215.858 288.302 215.432C288.235 214.992 288.082 214.645 287.842 214.392C287.615 214.138 287.262 214.012 286.782 214.012C286.302 214.012 285.948 214.138 285.722 214.392C285.495 214.645 285.348 214.992 285.282 215.432C285.215 215.858 285.182 216.445 285.182 217.192V220.552C285.182 221.298 285.215 221.892 285.282 222.332C285.348 222.758 285.495 223.098 285.722 223.352C285.948 223.605 286.302 223.732 286.782 223.732Z" fill="black"/>
<defs>
<filter id="filter0_d" x="135.972" y="97.4335" width="78.8118" height="45.8488" filterUnits="userSpaceOnUse" color-interpolation-filters="sRGB">
<feFlood flood-opacity="0" result="BackgroundImageFix"/>
<feColorMatrix in="SourceAlpha" type="matrix" values="0 0 0 0 0 0 0 0 0 0 0 0 0 0 0 0 0 0 127 0"/>
<feOffset dy="1"/>
<feGaussianBlur stdDeviation="5"/>
<feColorMatrix type="matrix" values="0 0 0 0 0.991667 0 0 0 0 0.589845 0 0 0 0 0.115694 0 0 0 0.7 0"/>
<feBlend mode="normal" in2="BackgroundImageFix" result="effect1_dropShadow"/>
<feBlend mode="normal" in="SourceGraphic" in2="effect1_dropShadow" result="shape"/>
</filter>
<linearGradient id="paint0_linear" x1="162.048" y1="39.0968" x2="162.048" y2="235.566" gradientUnits="userSpaceOnUse">
<stop stop-color="white" stop-opacity="0.74"/>
<stop offset="1" stop-color="white" stop-opacity="0"/>
</linearGradient>
</defs>
</svg>
