<svg width="281" height="273" viewBox="0 0 281 273" fill="none" xmlns="http://www.w3.org/2000/svg">
<path d="M24.0479 135.663C24.0479 132.901 26.2864 130.663 29.0479 130.663H101.048V147.233H24.0479V135.663Z" fill="#FD961E"/>
<mask id="path-2-inside-1" fill="white">
<path d="M256.048 136.511C256.048 106.523 243.826 77.763 222.072 56.5582C200.318 35.3534 170.813 23.4407 140.048 23.4407C109.283 23.4407 79.7777 35.3534 58.0235 56.5582C36.2693 77.763 24.0479 106.523 24.0479 136.511L39.4484 136.511C39.4484 110.504 50.0472 85.5626 68.9133 67.173C87.7794 48.7834 113.367 38.4523 140.048 38.4523C166.728 38.4523 192.316 48.7834 211.182 67.173C230.048 85.5626 240.647 110.504 240.647 136.511H256.048Z"/>
</mask>
<path d="M256.048 136.511C256.048 106.523 243.826 77.763 222.072 56.5582C200.318 35.3534 170.813 23.4407 140.048 23.4407C109.283 23.4407 79.7777 35.3534 58.0235 56.5582C36.2693 77.763 24.0479 106.523 24.0479 136.511L39.4484 136.511C39.4484 110.504 50.0472 85.5626 68.9133 67.173C87.7794 48.7834 113.367 38.4523 140.048 38.4523C166.728 38.4523 192.316 48.7834 211.182 67.173C230.048 85.5626 240.647 110.504 240.647 136.511H256.048Z" fill="#534949"/>
<path d="M256.048 136.511C256.048 106.523 243.826 77.763 222.072 56.5582C200.318 35.3534 170.813 23.4407 140.048 23.4407C109.283 23.4407 79.7777 35.3534 58.0235 56.5582C36.2693 77.763 24.0479 106.523 24.0479 136.511L39.4484 136.511C39.4484 110.504 50.0472 85.5626 68.9133 67.173C87.7794 48.7834 113.367 38.4523 140.048 38.4523C166.728 38.4523 192.316 48.7834 211.182 67.173C230.048 85.5626 240.647 110.504 240.647 136.511H256.048Z" stroke="#828282" stroke-width="30" mask="url(#path-2-inside-1)"/>
<path d="M256.048 136.511C256.048 106.523 243.826 77.763 222.072 56.5582C200.318 35.3534 170.813 23.4407 140.048 23.4407C109.283 23.4407 79.7777 35.3534 58.0235 56.5582C36.2693 77.763 24.0479 106.523 24.0479 136.511L39.4484 136.511C39.4484 110.504 50.0472 85.5626 68.9133 67.173C87.7794 48.7834 113.367 38.4523 140.048 38.4523C166.728 38.4523 192.316 48.7834 211.182 67.173C230.048 85.5626 240.647 110.504 240.647 136.511H256.048Z" stroke="url(#paint0_linear)" stroke-width="30" mask="url(#path-2-inside-1)"/>
<mask id="path-3-inside-2" fill="white">
<path d="M123.991 24.5292C95.3053 28.4372 69.1568 42.6648 50.6879 64.4143C32.219 86.1638 22.766 113.861 24.1876 142.061L39.5696 141.324C38.3367 116.868 46.5347 92.8481 62.5516 73.9861C78.5686 55.1241 101.245 42.7855 126.123 39.3963L123.991 24.5292Z"/>
</mask>
<path d="M123.991 24.5292C95.3053 28.4372 69.1568 42.6648 50.6879 64.4143C32.219 86.1638 22.766 113.861 24.1876 142.061L39.5696 141.324C38.3367 116.868 46.5347 92.8481 62.5516 73.9861C78.5686 55.1241 101.245 42.7855 126.123 39.3963L123.991 24.5292Z" fill="#534949" stroke="#FD961E" stroke-width="30" mask="url(#path-3-inside-2)"/>
<g filter="url(#filter0_d)">
<path d="M131.369 66.4356L155.57 118.703L124.474 123.385L131.369 66.4356Z" fill="#FD961E"/>
</g>
<path d="M65.025 185.434L70.025 177.709C70.1083 177.576 70.1833 177.459 70.25 177.359C70.3167 177.259 70.375 177.167 70.425 177.084C71.025 176.151 71.4667 175.376 71.75 174.759C72.0333 174.142 72.175 173.442 72.175 172.659C72.175 171.092 71.625 170.309 70.525 170.309C69.775 170.309 69.25 170.601 68.95 171.184C68.65 171.767 68.5 172.551 68.5 173.534V174.384H65.1V173.484C65.1 171.584 65.525 170.101 66.375 169.034C67.2417 167.951 68.5917 167.409 70.425 167.409C72.125 167.409 73.4167 167.876 74.3 168.809C75.1833 169.726 75.625 171.017 75.625 172.684C75.625 173.717 75.4417 174.634 75.075 175.434C74.725 176.234 74.175 177.217 73.425 178.384L73.125 178.834L68.95 185.109H75.1V187.884H65.025V185.434ZM83.6273 188.184C81.7107 188.184 80.3773 187.676 79.6273 186.659C78.894 185.626 78.5273 184.101 78.5273 182.084H81.9023C81.9023 183.234 82.0273 184.101 82.2773 184.684C82.5273 185.267 83.019 185.559 83.7523 185.559C84.3023 185.559 84.7107 185.384 84.9773 185.034C85.244 184.667 85.4107 184.184 85.4773 183.584C85.5607 182.967 85.6023 182.117 85.6023 181.034C85.6023 179.701 85.4773 178.717 85.2273 178.084C84.9773 177.451 84.4607 177.134 83.6773 177.134C83.2107 177.134 82.8107 177.292 82.4773 177.609C82.1607 177.926 81.9273 178.359 81.7773 178.909H78.8023L79.0023 167.634H88.1023V170.734H81.9023L81.7023 175.609C81.9857 175.292 82.394 175.042 82.9273 174.859C83.4607 174.659 84.044 174.559 84.6773 174.559C86.1107 174.559 87.169 175.109 87.8523 176.209C88.5523 177.292 88.9023 178.826 88.9023 180.809C88.9023 182.359 88.7523 183.667 88.4523 184.734C88.169 185.801 87.644 186.642 86.8773 187.259C86.1107 187.876 85.0273 188.184 83.6273 188.184ZM99.6355 167.634H103.461L106.336 181.659L109.311 167.634H113.036L113.411 187.884H110.661L110.361 173.809L107.486 187.884H105.261L102.336 173.759L102.061 187.884H99.2855L99.6355 167.634ZM121.676 188.109C120.043 188.109 118.868 187.667 118.151 186.784C117.434 185.884 117.076 184.526 117.076 182.709V174.434C117.076 172.567 117.318 171.192 117.801 170.309C118.301 169.409 119.084 168.759 120.151 168.359C120.618 168.176 121.368 167.959 122.401 167.709C123.118 167.542 123.701 167.392 124.151 167.259C124.601 167.109 125.043 166.892 125.476 166.609L125.826 169.384C125.426 169.601 125.001 169.776 124.551 169.909C124.118 170.026 123.593 170.142 122.976 170.259C122.009 170.459 121.309 170.651 120.876 170.834C120.426 171.051 120.084 171.392 119.851 171.859C119.634 172.326 119.526 172.959 119.526 173.759V175.459C119.859 175.109 120.326 174.817 120.926 174.584C121.526 174.351 122.159 174.234 122.826 174.234C123.993 174.234 124.868 174.642 125.451 175.459C126.051 176.259 126.351 177.601 126.351 179.484V182.634C126.351 184.067 126.159 185.184 125.776 185.984C125.393 186.784 124.859 187.342 124.176 187.659C123.509 187.959 122.676 188.109 121.676 188.109ZM121.776 185.809C122.126 185.809 122.393 185.726 122.576 185.559C122.759 185.376 122.884 185.076 122.951 184.659C123.034 184.226 123.076 183.609 123.076 182.809V178.709C123.076 177.842 122.993 177.234 122.826 176.884C122.659 176.517 122.359 176.334 121.926 176.334C121.326 176.334 120.818 176.751 120.401 177.584V182.684C120.401 183.517 120.434 184.151 120.501 184.584C120.584 185.017 120.726 185.334 120.926 185.534C121.126 185.717 121.409 185.809 121.776 185.809ZM129.699 173.434H132.449V182.134L136.524 173.434H139.174V187.884H136.399V179.184L132.424 187.884H129.699V173.434ZM144.484 175.834H141.834V173.434H150.559V175.834H147.884V187.884H144.484V175.834ZM158.634 167.634H160.884L155.034 187.884H152.784L158.634 167.634ZM168.47 188.109C166.854 188.109 165.679 187.659 164.945 186.759C164.212 185.842 163.845 184.534 163.845 182.834V178.484C163.845 176.767 164.212 175.459 164.945 174.559C165.679 173.659 166.854 173.209 168.47 173.209C170.004 173.209 171.12 173.576 171.82 174.309C172.537 175.042 172.895 176.159 172.895 177.659V178.859H169.695V177.584C169.695 176.834 169.604 176.317 169.42 176.034C169.254 175.751 168.945 175.609 168.495 175.609C168.012 175.609 167.679 175.784 167.495 176.134C167.329 176.484 167.245 177.126 167.245 178.059V183.359C167.245 184.259 167.337 184.876 167.52 185.209C167.72 185.542 168.045 185.709 168.495 185.709C168.962 185.709 169.279 185.559 169.445 185.259C169.612 184.942 169.695 184.442 169.695 183.759V182.209H172.895V183.584C172.895 185.067 172.537 186.192 171.82 186.959C171.104 187.726 169.987 188.109 168.47 188.109ZM180.53 188.109C178.93 188.109 177.755 187.667 177.005 186.784C176.255 185.884 175.88 184.559 175.88 182.809V178.509C175.88 176.742 176.255 175.417 177.005 174.534C177.772 173.651 178.947 173.209 180.53 173.209C182.164 173.209 183.314 173.667 183.98 174.584C184.664 175.501 185.005 176.884 185.005 178.734V180.809H179.255V183.659C179.255 184.359 179.355 184.867 179.555 185.184C179.772 185.501 180.105 185.659 180.555 185.659C180.989 185.659 181.297 185.509 181.48 185.209C181.68 184.892 181.78 184.417 181.78 183.784V182.559H184.98V183.559C184.98 185.042 184.605 186.176 183.855 186.959C183.105 187.726 181.997 188.109 180.53 188.109ZM181.78 179.134V177.759C181.78 177.009 181.689 176.476 181.505 176.159C181.322 175.826 180.997 175.659 180.53 175.659C180.047 175.659 179.714 175.834 179.53 176.184C179.347 176.534 179.255 177.184 179.255 178.134V179.134H181.78ZM188.313 173.434H191.713V179.334H192.388L194.838 173.434H198.438L195.488 180.334L198.513 187.884H194.913L192.388 181.309H191.713V187.884H188.313V173.434Z" fill="black"/>
<path d="M203.758 168.634L201.458 169.534V167.334L204.733 165.684H206.283V177.059H203.758V168.634Z" fill="#60C2C2"/>
<path d="M12.42 224.394H20.7V240.594H19.18V225.534H13.94V240.594H12.42V224.394ZM23.6938 242.334C24.6271 242.334 25.2538 242.234 25.5738 242.034C25.8938 241.834 26.0538 241.534 26.0538 241.134C26.0538 240.881 25.9938 240.521 25.8738 240.054C25.7671 239.574 25.7004 239.294 25.6738 239.214L23.2938 229.034H24.7538L26.7538 238.874L28.6938 229.034H30.1738L27.3738 241.414C27.2004 242.147 26.8538 242.674 26.3338 242.994C25.8138 243.314 25.0604 243.474 24.0738 243.474H23.6938V242.334ZM35.6909 240.774C34.7576 240.774 33.9843 240.447 33.3709 239.794C32.7709 239.141 32.4709 238.187 32.4709 236.934V229.814C32.4709 228.374 32.6176 227.314 32.9109 226.634C33.2176 225.941 33.6976 225.447 34.3509 225.154C34.6976 225.007 35.0643 224.887 35.4509 224.794C35.8509 224.701 36.0909 224.647 36.1709 224.634C36.6909 224.527 37.1243 224.427 37.4709 224.334C37.8309 224.227 38.2043 224.087 38.5909 223.914L38.8509 225.134C38.5043 225.307 38.1509 225.441 37.7909 225.534C37.4443 225.627 37.0309 225.721 36.5509 225.814C36.1509 225.894 35.8176 225.967 35.5509 226.034C35.2976 226.101 35.0643 226.194 34.8509 226.314C34.4776 226.514 34.2043 226.841 34.0309 227.294C33.8576 227.747 33.7709 228.401 33.7709 229.254V230.894C34.0243 230.627 34.4176 230.387 34.9509 230.174C35.4843 229.947 35.9776 229.834 36.4309 229.834C37.3243 229.834 38.0043 230.181 38.4709 230.874C38.9376 231.554 39.1709 232.681 39.1709 234.254V236.274C39.1709 237.967 38.8776 239.141 38.2909 239.794C37.7043 240.447 36.8376 240.774 35.6909 240.774ZM35.8109 239.674C36.4643 239.674 36.9376 239.461 37.2309 239.034C37.5376 238.594 37.6909 237.801 37.6909 236.654V233.874C37.6909 232.754 37.5709 231.974 37.3309 231.534C37.1043 231.094 36.7043 230.874 36.1309 230.874C35.8109 230.874 35.4309 230.967 34.9909 231.154C34.5643 231.341 34.2109 231.547 33.9309 231.774V236.974C33.9309 237.907 34.0976 238.594 34.4309 239.034C34.7643 239.461 35.2243 239.674 35.8109 239.674ZM41.0419 239.574C41.5752 239.561 41.9752 239.414 42.2419 239.134C42.5085 238.854 42.7152 238.347 42.8619 237.614C43.0085 236.881 43.1352 235.741 43.2419 234.194L43.6019 229.034H48.8819V240.594H47.4219V230.154H44.8819L44.6019 234.194C44.4819 235.994 44.3085 237.347 44.0819 238.254C43.8685 239.147 43.5485 239.781 43.1219 240.154C42.6952 240.514 42.0752 240.694 41.2619 240.694H41.0419V239.574ZM51.902 229.034H53.142V237.934L57.002 229.034H58.182V240.594H56.942V231.714L53.122 240.594H51.902V229.034ZM65.4377 235.774C64.7443 235.907 64.1843 235.974 63.7577 235.974C61.851 235.974 60.8977 235.087 60.8977 233.314V229.034H62.3577V233.354C62.3577 234.394 62.9243 234.914 64.0577 234.914C64.4443 234.914 64.9043 234.854 65.4377 234.734V229.034H66.9177V240.594H65.4377V235.774ZM69.9669 229.034H71.4269V234.074H75.0269V229.034H76.5069V240.594H75.0269V235.174H71.4269V240.594H69.9669V229.034ZM79.5364 229.034H80.9964V233.734H81.6964C83.1764 233.747 84.2031 234.047 84.7764 234.634C85.3497 235.207 85.6364 236.067 85.6364 237.214C85.6364 238.294 85.3364 239.127 84.7364 239.714C84.1497 240.301 83.0964 240.594 81.5764 240.594H79.5364V229.034ZM87.0964 229.034H88.5564V240.594H87.0964V229.034ZM81.5764 239.674C82.6164 239.674 83.3297 239.474 83.7164 239.074C84.1031 238.661 84.2964 238.034 84.2964 237.194C84.2964 236.381 84.1097 235.761 83.7364 235.334C83.3764 234.894 82.6764 234.667 81.6364 234.654H80.9964V239.674H81.5764ZM91.6059 229.034H92.8459V237.934L96.7059 229.034H97.8859V240.594H96.6459V231.714L92.8259 240.594H91.6059V229.034ZM94.7659 227.794C93.9926 227.794 93.4059 227.587 93.0059 227.174C92.6059 226.761 92.3926 226.167 92.3659 225.394H93.3059C93.3193 226.407 93.8059 226.914 94.7659 226.914C95.7126 226.914 96.2126 226.407 96.2659 225.394H97.1859C97.1726 226.154 96.9593 226.747 96.5459 227.174C96.1326 227.587 95.5393 227.794 94.7659 227.794ZM106.144 224.394H107.664V240.594H106.144V224.394ZM111.337 224.394H115.217C116.591 224.394 117.571 224.767 118.157 225.514C118.757 226.261 119.057 227.321 119.057 228.694C119.057 229.947 118.744 230.967 118.117 231.754C117.504 232.541 116.544 232.934 115.237 232.934H112.857V240.594H111.337V224.394ZM114.797 231.794C115.797 231.794 116.504 231.567 116.917 231.114C117.344 230.647 117.557 229.841 117.557 228.694C117.557 227.854 117.477 227.214 117.317 226.774C117.157 226.321 116.884 226.001 116.497 225.814C116.111 225.627 115.551 225.534 114.817 225.534H112.857V231.794H114.797ZM121.245 233.494H125.485V234.654H121.245V233.494ZM130.243 240.774C129.549 240.774 128.989 240.527 128.563 240.034C128.136 239.541 127.923 238.927 127.923 238.194C127.923 237.434 128.069 236.807 128.363 236.314C128.669 235.821 129.136 235.381 129.763 234.994C130.389 234.607 131.329 234.134 132.583 233.574V232.754C132.583 232.034 132.536 231.474 132.443 231.074C132.363 230.674 132.216 230.387 132.003 230.214C131.803 230.041 131.516 229.954 131.143 229.954C130.063 229.954 129.523 230.614 129.523 231.934V232.334L128.083 232.314C128.096 231.127 128.349 230.254 128.843 229.694C129.336 229.134 130.129 228.854 131.223 228.854C132.236 228.854 132.956 229.161 133.383 229.774C133.823 230.387 134.043 231.354 134.043 232.674V238.294C134.043 238.667 134.049 239.094 134.063 239.574C134.089 240.054 134.116 240.394 134.143 240.594H132.843L132.623 238.994C132.449 239.501 132.149 239.927 131.723 240.274C131.309 240.607 130.816 240.774 130.243 240.774ZM130.703 239.534C131.103 239.534 131.463 239.401 131.783 239.134C132.116 238.854 132.383 238.527 132.583 238.154V234.554C131.676 235.034 131.016 235.407 130.603 235.674C130.203 235.941 129.896 236.241 129.683 236.574C129.483 236.894 129.383 237.314 129.383 237.834C129.383 238.407 129.503 238.834 129.743 239.114C129.996 239.394 130.316 239.534 130.703 239.534ZM136.072 239.594C136.565 239.287 136.972 238.854 137.292 238.294C137.612 237.734 137.872 236.934 138.072 235.894C138.272 234.841 138.412 233.454 138.492 231.734L138.672 229.034H143.492V239.534H144.652V243.374H143.552L143.432 240.594H137.312L137.172 243.374H136.072V239.594ZM142.072 239.534V230.114H139.852L139.672 232.034C139.565 233.741 139.432 235.087 139.272 236.074C139.112 237.047 138.899 237.801 138.632 238.334C138.379 238.854 138.032 239.254 137.592 239.534H142.072ZM147.186 229.034H148.646V229.994C149.246 229.234 149.986 228.854 150.866 228.854C151.88 228.854 152.566 229.274 152.926 230.114C153.3 230.941 153.486 232.054 153.486 233.454V235.894C153.486 237.481 153.28 238.694 152.866 239.534C152.453 240.361 151.733 240.774 150.706 240.774C149.986 240.774 149.3 240.407 148.646 239.674V244.394H147.186V229.034ZM150.486 239.614C151.1 239.614 151.506 239.327 151.706 238.754C151.92 238.181 152.026 237.241 152.026 235.934V233.454C152.026 232.214 151.92 231.327 151.706 230.794C151.506 230.261 151.086 229.994 150.446 229.994C149.846 229.994 149.246 230.294 148.646 230.894V238.774C149.18 239.334 149.793 239.614 150.486 239.614ZM159.226 240.774C158.48 240.774 157.88 240.627 157.426 240.334C156.973 240.041 156.64 239.567 156.426 238.914C156.213 238.261 156.106 237.374 156.106 236.254V233.334C156.106 232.201 156.213 231.314 156.426 230.674C156.653 230.021 156.993 229.554 157.446 229.274C157.913 228.994 158.513 228.854 159.246 228.854C160.046 228.854 160.66 229.027 161.086 229.374C161.526 229.707 161.826 230.214 161.986 230.894C162.16 231.574 162.246 232.487 162.246 233.634V234.674H157.566V236.694C157.566 237.801 157.693 238.574 157.946 239.014C158.2 239.454 158.626 239.674 159.226 239.674C159.733 239.674 160.12 239.514 160.386 239.194C160.666 238.874 160.806 238.294 160.806 237.454V236.654H162.226V237.294C162.226 238.414 161.993 239.274 161.526 239.874C161.06 240.474 160.293 240.774 159.226 240.774ZM160.806 233.834V232.874C160.806 232.181 160.766 231.634 160.686 231.234C160.62 230.834 160.473 230.521 160.246 230.294C160.02 230.067 159.68 229.954 159.226 229.954C158.813 229.954 158.486 230.047 158.246 230.234C158.006 230.407 157.833 230.721 157.726 231.174C157.62 231.614 157.566 232.241 157.566 233.054V233.834H160.806ZM167.897 240.774C167.044 240.774 166.39 240.587 165.937 240.214C165.484 239.827 165.177 239.314 165.017 238.674C164.87 238.021 164.797 237.201 164.797 236.214V233.514C164.797 232.394 164.884 231.501 165.057 230.834C165.244 230.167 165.557 229.674 165.997 229.354C166.45 229.021 167.084 228.854 167.897 228.854C169.03 228.854 169.804 229.167 170.217 229.794C170.63 230.407 170.837 231.327 170.837 232.554V233.114H169.477V232.554C169.477 231.874 169.424 231.347 169.317 230.974C169.224 230.601 169.064 230.341 168.837 230.194C168.61 230.034 168.297 229.954 167.897 229.954C167.444 229.954 167.097 230.061 166.857 230.274C166.63 230.487 166.47 230.827 166.377 231.294C166.297 231.747 166.257 232.407 166.257 233.274V236.514C166.257 237.314 166.304 237.941 166.397 238.394C166.49 238.847 166.657 239.174 166.897 239.374C167.137 239.574 167.477 239.674 167.917 239.674C168.37 239.674 168.704 239.581 168.917 239.394C169.144 239.194 169.29 238.901 169.357 238.514C169.437 238.127 169.477 237.587 169.477 236.894V236.254H170.837V236.814C170.837 237.681 170.757 238.401 170.597 238.974C170.45 239.534 170.164 239.974 169.737 240.294C169.31 240.614 168.697 240.774 167.897 240.774ZM178.212 233.494H182.452V234.654H178.212V233.494ZM193.352 240.774C192.419 240.774 191.645 240.447 191.032 239.794C190.432 239.141 190.132 238.187 190.132 236.934V229.814C190.132 228.374 190.279 227.314 190.572 226.634C190.879 225.941 191.359 225.447 192.012 225.154C192.359 225.007 192.725 224.887 193.112 224.794C193.512 224.701 193.752 224.647 193.832 224.634C194.352 224.527 194.785 224.427 195.132 224.334C195.492 224.227 195.865 224.087 196.252 223.914L196.512 225.134C196.165 225.307 195.812 225.441 195.452 225.534C195.105 225.627 194.692 225.721 194.212 225.814C193.812 225.894 193.479 225.967 193.212 226.034C192.959 226.101 192.725 226.194 192.512 226.314C192.139 226.514 191.865 226.841 191.692 227.294C191.519 227.747 191.432 228.401 191.432 229.254V230.894C191.685 230.627 192.079 230.387 192.612 230.174C193.145 229.947 193.639 229.834 194.092 229.834C194.985 229.834 195.665 230.181 196.132 230.874C196.599 231.554 196.832 232.681 196.832 234.254V236.274C196.832 237.967 196.539 239.141 195.952 239.794C195.365 240.447 194.499 240.774 193.352 240.774ZM193.472 239.674C194.125 239.674 194.599 239.461 194.892 239.034C195.199 238.594 195.352 237.801 195.352 236.654V233.874C195.352 232.754 195.232 231.974 194.992 231.534C194.765 231.094 194.365 230.874 193.792 230.874C193.472 230.874 193.092 230.967 192.652 231.154C192.225 231.341 191.872 231.547 191.592 231.774V236.974C191.592 237.907 191.759 238.594 192.092 239.034C192.425 239.461 192.885 239.674 193.472 239.674ZM202.581 240.774C201.834 240.774 201.234 240.627 200.781 240.334C200.328 240.041 199.994 239.567 199.781 238.914C199.568 238.261 199.461 237.374 199.461 236.254V233.334C199.461 232.201 199.568 231.314 199.781 230.674C200.008 230.021 200.348 229.554 200.801 229.274C201.268 228.994 201.868 228.854 202.601 228.854C203.401 228.854 204.014 229.027 204.441 229.374C204.881 229.707 205.181 230.214 205.341 230.894C205.514 231.574 205.601 232.487 205.601 233.634V234.674H200.921V236.694C200.921 237.801 201.048 238.574 201.301 239.014C201.554 239.454 201.981 239.674 202.581 239.674C203.088 239.674 203.474 239.514 203.741 239.194C204.021 238.874 204.161 238.294 204.161 237.454V236.654H205.581V237.294C205.581 238.414 205.348 239.274 204.881 239.874C204.414 240.474 203.648 240.774 202.581 240.774ZM204.161 233.834V232.874C204.161 232.181 204.121 231.634 204.041 231.234C203.974 230.834 203.828 230.521 203.601 230.294C203.374 230.067 203.034 229.954 202.581 229.954C202.168 229.954 201.841 230.047 201.601 230.234C201.361 230.407 201.188 230.721 201.081 231.174C200.974 231.614 200.921 232.241 200.921 233.054V233.834H204.161ZM211.252 240.774C210.398 240.774 209.745 240.587 209.292 240.214C208.838 239.827 208.532 239.314 208.372 238.674C208.225 238.021 208.152 237.201 208.152 236.214V233.514C208.152 232.394 208.238 231.501 208.412 230.834C208.598 230.167 208.912 229.674 209.352 229.354C209.805 229.021 210.438 228.854 211.252 228.854C212.385 228.854 213.158 229.167 213.572 229.794C213.985 230.407 214.192 231.327 214.192 232.554V233.114H212.832V232.554C212.832 231.874 212.778 231.347 212.672 230.974C212.578 230.601 212.418 230.341 212.192 230.194C211.965 230.034 211.652 229.954 211.252 229.954C210.798 229.954 210.452 230.061 210.212 230.274C209.985 230.487 209.825 230.827 209.732 231.294C209.652 231.747 209.612 232.407 209.612 233.274V236.514C209.612 237.314 209.658 237.941 209.752 238.394C209.845 238.847 210.012 239.174 210.252 239.374C210.492 239.574 210.832 239.674 211.272 239.674C211.725 239.674 212.058 239.581 212.272 239.394C212.498 239.194 212.645 238.901 212.712 238.514C212.792 238.127 212.832 237.587 212.832 236.894V236.254H214.192V236.814C214.192 237.681 214.112 238.401 213.952 238.974C213.805 239.534 213.518 239.974 213.092 240.294C212.665 240.614 212.052 240.774 211.252 240.774ZM216.945 229.034H223.125V240.594H221.665V230.174H218.405V240.594H216.945V229.034ZM225.243 239.574C225.777 239.561 226.177 239.414 226.443 239.134C226.71 238.854 226.917 238.347 227.063 237.614C227.21 236.881 227.337 235.741 227.443 234.194L227.803 229.034H233.083V240.594H231.623V230.154H229.083L228.803 234.194C228.683 235.994 228.51 237.347 228.283 238.254C228.07 239.147 227.75 239.781 227.323 240.154C226.897 240.514 226.277 240.694 225.463 240.694H225.243V239.574ZM238.104 240.774C237.41 240.774 236.85 240.527 236.424 240.034C235.997 239.541 235.784 238.927 235.784 238.194C235.784 237.434 235.93 236.807 236.224 236.314C236.53 235.821 236.997 235.381 237.624 234.994C238.25 234.607 239.19 234.134 240.444 233.574V232.754C240.444 232.034 240.397 231.474 240.304 231.074C240.224 230.674 240.077 230.387 239.864 230.214C239.664 230.041 239.377 229.954 239.004 229.954C237.924 229.954 237.384 230.614 237.384 231.934V232.334L235.944 232.314C235.957 231.127 236.21 230.254 236.704 229.694C237.197 229.134 237.99 228.854 239.084 228.854C240.097 228.854 240.817 229.161 241.244 229.774C241.684 230.387 241.904 231.354 241.904 232.674V238.294C241.904 238.667 241.91 239.094 241.924 239.574C241.95 240.054 241.977 240.394 242.004 240.594H240.704L240.484 238.994C240.31 239.501 240.01 239.927 239.584 240.274C239.17 240.607 238.677 240.774 238.104 240.774ZM238.564 239.534C238.964 239.534 239.324 239.401 239.644 239.134C239.977 238.854 240.244 238.527 240.444 238.154V234.554C239.537 235.034 238.877 235.407 238.464 235.674C238.064 235.941 237.757 236.241 237.544 236.574C237.344 236.894 237.244 237.314 237.244 237.834C237.244 238.407 237.364 238.834 237.604 239.114C237.857 239.394 238.177 239.534 238.564 239.534ZM246.373 230.154H243.873V229.034H250.293V230.154H247.833V240.594H246.373V230.154ZM252.352 229.034H253.812V234.074H257.412V229.034H258.892V240.594H257.412V235.174H253.812V240.594H252.352V229.034ZM264.782 240.774C263.635 240.774 262.835 240.421 262.382 239.714C261.928 238.994 261.702 237.894 261.702 236.414V233.214C261.702 231.734 261.928 230.641 262.382 229.934C262.835 229.214 263.635 228.854 264.782 228.854C265.942 228.854 266.748 229.214 267.202 229.934C267.655 230.641 267.882 231.734 267.882 233.214V236.414C267.882 237.894 267.655 238.994 267.202 239.714C266.748 240.421 265.942 240.774 264.782 240.774ZM264.782 239.674C265.262 239.674 265.615 239.547 265.842 239.294C266.082 239.041 266.235 238.701 266.302 238.274C266.368 237.834 266.402 237.241 266.402 236.494V233.134C266.402 232.387 266.368 231.801 266.302 231.374C266.235 230.934 266.082 230.587 265.842 230.334C265.615 230.081 265.262 229.954 264.782 229.954C264.302 229.954 263.948 230.081 263.722 230.334C263.495 230.587 263.348 230.934 263.282 231.374C263.215 231.801 263.182 232.387 263.182 233.134V236.494C263.182 237.241 263.215 237.834 263.282 238.274C263.348 238.701 263.495 239.041 263.722 239.294C263.948 239.547 264.302 239.674 264.782 239.674Z" fill="black"/>
<defs>
<filter id="filter0_d" x="114.474" y="57.4356" width="51.0968" height="76.9497" filterUnits="userSpaceOnUse" color-interpolation-filters="sRGB">
<feFlood flood-opacity="0" result="BackgroundImageFix"/>
<feColorMatrix in="SourceAlpha" type="matrix" values="0 0 0 0 0 0 0 0 0 0 0 0 0 0 0 0 0 0 127 0"/>
<feOffset dy="1"/>
<feGaussianBlur stdDeviation="5"/>
<feColorMatrix type="matrix" values="0 0 0 0 0.991667 0 0 0 0 0.589845 0 0 0 0 0.115694 0 0 0 0.7 0"/>
<feBlend mode="normal" in2="BackgroundImageFix" result="effect1_dropShadow"/>
<feBlend mode="normal" in="SourceGraphic" in2="effect1_dropShadow" result="shape"/>
</filter>
<linearGradient id="paint0_linear" x1="140.048" y1="23.4407" x2="140.048" y2="249.581" gradientUnits="userSpaceOnUse">
<stop stop-color="white" stop-opacity="0.74"/>
<stop offset="1" stop-color="white" stop-opacity="0"/>
</linearGradient>
</defs>
</svg>
